<?xml version="1.0" encoding="UTF-8" standalone="no"?>
<!DOCTYPE svg PUBLIC "-//W3C//DTD SVG 1.1//EN" "http://www.w3.org/Graphics/SVG/1.1/DTD/svg11.dtd">
<svg width="100%" height="100%" viewBox="0 0 1200 500" version="1.1" xmlns="http://www.w3.org/2000/svg" xmlns:xlink="http://www.w3.org/1999/xlink" xml:space="preserve" xmlns:serif="http://www.serif.com/" style="fill-rule:evenodd;clip-rule:evenodd;stroke-linejoin:round;stroke-miterlimit:2;">
    <g transform="matrix(1,0,0,1,657.79,-189.902)">
        <path d="M37.95,221.95C55.61,213.88 75.43,210.59 94.75,212.37C102.12,213.04 109.23,215.28 116.13,217.88C123.7,220.76 130.39,225.41 137.1,229.85C141.26,232.6 145.33,235.59 148.59,239.39C156.94,249.31 164.06,260.47 168,272.9C169.12,276.52 169.92,272.72 171.8,276.01C171.63,273.57 172.1,278.43 171.8,276.01C194.69,269.88 218.64,271.78 242.05,272.16C261.41,273.32 280.69,276.38 299.36,281.67C307.15,283.77 314.7,286.74 322.64,288.24C321.94,291.52 321.95,294.9 322.02,298.24C326.01,288.99 329.97,279.46 337.2,272.19C344.32,265.24 351.76,258.34 360.61,253.63C366.1,250.61 371.61,247.51 377.6,245.62C390.43,241.83 403.86,239.33 417.28,240.58C425.75,241.44 434.26,242.79 442.29,245.72C452.12,249.39 462.01,253.26 470.64,259.36C477.45,263.75 482.51,270.18 487.75,276.25C495.64,285.38 500.24,296.76 503.95,308.1C511.2,326 513.06,345.68 511.8,364.83C509.88,378.28 505.73,391.43 499.44,403.48C494.73,410.6 489.73,417.71 483.26,423.37C481.9,424.46 481.27,426.09 480.77,427.71C470.57,436.13 457.87,440.43 445.45,444.36C439.76,442.82 433.8,443.99 428,443.87C416.5,444.22 404.98,442.74 393.51,443.78C393.42,444.78 393.32,445.79 393.2,446.8C392.03,452.32 390.2,457.68 389.21,463.24C388.69,458.75 387.94,454.29 387.46,449.79C387.21,452.57 386.93,455.34 386.62,458.12C385.66,454.89 384.83,451.62 384.14,448.33C380.91,448.01 377.46,448.1 374.57,446.4C372.25,445.07 370.15,443.41 368,441.86C367.96,435.83 368.31,429.77 367.52,423.77C367.21,426.49 366.93,429.22 366.68,431.95C364.58,431.9 362.49,431.86 360.41,431.81C360.2,430.61 359.99,429.41 359.79,428.23C359.18,429.1 358.58,429.98 357.98,430.87C356.51,428.65 354.53,426.84 352.12,425.69C353.47,428.28 355.03,430.76 356.65,433.19C355.9,434.5 355.14,435.8 354.38,437.11C352.14,428.74 346.77,421.19 339.31,416.73C333.8,413.52 327.16,413.37 320.97,413.75C313.16,414.14 305.83,417.93 300.11,423.1C289.4,432.67 287.26,448.38 288.5,461.95C287.45,463.35 286.41,464.74 285.35,466.14C284.26,465.11 283.17,464.1 282.09,463.09C281.67,464.18 281.3,465.31 280.8,466.38C280.16,465.79 279.54,465.2 278.93,464.6C278.85,465.12 278.68,466.16 278.6,466.68C277.25,464.72 275.91,462.75 274.57,460.8C275.8,443.15 272.2,423.72 259.2,410.82C250.24,401.23 236.89,396.61 223.94,396.87C215.18,397.13 206.88,400.79 199.84,405.83C194.14,409.72 189.38,414.99 186.12,421.08C183.43,426.84 181.85,433.05 180.25,439.19C180.23,438.67 180.18,437.64 180.16,437.12C178.52,439.45 177.03,441.88 175.54,444.31C175.71,442.97 175.87,441.65 176.04,440.32C174.65,441.52 173.26,442.72 171.84,443.88C171.89,443.42 172.01,442.5 172.07,442.04C177.8,433.64 177.5,423.05 176.51,413.37C175.56,404.58 171.12,396.32 164.54,390.46C156.32,383.76 144.53,381.49 134.61,385.62C126.07,388.2 119.32,394.77 115.73,402.85C110.71,410.8 111.97,420.45 111.67,429.38C104.87,427.32 102.81,419.21 96.16,416.9C90,414.77 83.35,416.06 77.04,416.75C77.92,417.4 78.8,418.06 79.68,418.72C78.8,419.1 77.92,419.48 77.05,419.87C76.01,417.16 74.97,414.45 73.9,411.75C65.59,411.93 57.26,412.44 48.96,411.73C39.74,410.9 30.25,411.75 21.3,408.93C13.34,406.16 5.107,397.717 0,390.557C-19.515,363.198 -23.824,344.192 -20.77,310.477C-19.698,298.646 -16.163,287.78 -9.663,272.328L0,255.75C3.98,251.12 7.75,246.32 11.62,241.61C18.69,233.07 28.05,226.75 37.95,221.95M50.14,271.19C42.33,273.91 35.47,280.12 33,288.14C30.96,290.07 30.45,293.01 29.71,295.61C25.91,312.94 31.65,331.52 43.33,344.67C48.51,351.04 55.37,355.91 62.99,358.96C68.01,361 72.99,363.39 78.44,364.03C80.09,353.65 85.61,344.6 90.45,335.48C93.47,329.72 97.64,324.72 101.66,319.66C109.08,309.63 117.92,300.4 128.58,293.81C127.64,292.41 127.34,289.99 125.39,289.65C121.41,283.64 115.23,279.61 109.31,275.72C101.81,271.47 93.8,267.51 85.09,266.7C80.07,266.09 75,266 69.94,266.13C63.02,266.16 56.57,268.95 50.14,271.19M395.2,301.19C382.48,304.28 370.26,311.45 362.76,322.35C363.8,322.37 364.84,322.32 365.89,322.2C371.13,327.67 375.6,333.81 380.15,339.85C385.75,347.2 389.53,355.7 392.81,364.27C397.06,373.77 399.34,384.06 400.33,394.39C400.23,394.97 400.02,396.12 399.92,396.69C412.57,394.02 425.04,389.23 435.47,381.46C445.36,372.68 453.18,361.23 456.26,348.25C456.98,344.76 458.2,341.12 457.42,337.54C459.25,327.31 454.58,316.79 447.06,309.95C441.52,305.27 434.78,302.06 427.79,300.26C417.03,298.19 405.86,298.82 395.2,301.19Z" style="fill:rgb(166,163,169);fill-rule:nonzero;"/>
    </g>
    <g transform="matrix(1,0,0,1,657.79,-189.902)">
        <path d="M388.42,221.5C399.41,219.38 410.76,218.5 421.85,220.33C433.95,221.93 445.65,225.65 457,230.01C468.8,236.02 480.65,242.49 490.17,251.85C492.9,254.45 494.57,258.1 497.72,260.26C502.81,262.69 508.33,264.51 512.67,268.26C518.71,273.56 524.68,278.96 530.01,284.97C534.59,290.2 539.29,295.48 542.21,301.86C534.5,299.67 526.74,297.45 518.69,296.98C520.11,300.54 521.79,303.98 523.66,307.33C528.08,315.2 530.43,324.09 531.27,333.04C532.31,343.6 532.9,354.51 529.84,364.8C528.52,370.2 525.72,375.99 528.43,381.44C524.9,379.16 524.21,374.55 521.11,371.87C518.65,369.7 515.3,369.14 512.24,368.31C512.07,367.15 511.92,365.99 511.8,364.83C513.06,345.68 511.2,326 503.95,308.1C500.24,296.76 495.64,285.38 487.75,276.25C482.51,270.18 477.45,263.75 470.64,259.36C462.01,253.26 452.12,249.39 442.29,245.72C434.26,242.79 425.75,241.44 417.28,240.58C403.86,239.33 390.43,241.83 377.6,245.62C371.61,247.51 366.1,250.61 360.61,253.63C351.76,258.34 344.32,265.24 337.2,272.19C329.97,279.46 326.01,288.99 322.02,298.24C321.95,294.9 321.94,291.52 322.64,288.24C325.65,280.12 329.72,272.43 333.73,264.76C336.9,258.56 341.85,253.6 346.3,248.33C351.78,241.72 358.94,236.85 365.78,231.78C372.49,226.78 380.29,223.37 388.42,221.5Z" style="fill:rgb(206,202,209);fill-rule:nonzero;"/>
    </g>
    <g transform="matrix(-1.01505,0,0,1,1154.63,-218.625)">
        <path d="M388.42,221.5C399.41,219.38 410.76,218.5 421.85,220.33C433.95,221.93 445.65,225.65 457,230.01C468.8,236.02 480.65,242.49 490.17,251.85C492.9,254.45 494.57,258.1 497.72,260.26C502.81,262.69 508.33,264.51 512.67,268.26C518.71,273.56 524.68,278.96 530.01,284.97C534.59,290.2 539.29,295.48 542.21,301.86C534.5,299.67 526.74,297.45 518.69,296.98C520.11,300.54 521.79,303.98 523.66,307.33C528.08,315.2 530.43,324.09 531.27,333.04C532.31,343.6 532.9,354.51 529.84,364.8C528.52,370.2 525.72,375.99 528.43,381.44C524.9,379.16 524.21,374.55 521.11,371.87C518.65,369.7 515.3,369.14 512.24,368.31C512.07,367.15 510.938,365.99 510.818,364.83C512.078,345.68 508.869,326.187 501.619,308.287C499.082,300.531 494.513,291.501 489.201,284.16C486.747,280.768 481.55,274.561 480.291,273.086C476.691,268.867 474.757,266.577 468.176,261.19C459.698,254.249 454.693,251.162 447.043,248.061C438.58,244.631 423.539,241.484 415.069,240.624C401.649,239.374 390.43,241.83 377.6,245.62C371.61,247.51 365.6,252.718 360.11,255.738C351.26,260.448 345.357,267.609 338.237,274.559C331.007,281.829 327.217,302.233 320.097,308.531C320.027,305.191 321.94,291.52 322.64,288.24C325.65,280.12 329.72,272.43 333.73,264.76C336.9,258.56 341.85,253.6 346.3,248.33C351.78,241.72 358.94,236.85 365.78,231.78C372.49,226.78 380.29,223.37 388.42,221.5Z" style="fill:rgb(206,202,209);fill-rule:nonzero;"/>
    </g>
    <g transform="matrix(1,0,0,1,657.79,-189.902)">
        <path d="M50.14,271.19C56.57,268.95 63.02,266.16 69.94,266.13C75,266 80.07,266.09 85.09,266.7C93.8,267.51 101.81,271.47 109.31,275.72C115.23,279.61 121.41,283.64 125.39,289.65C117.35,288.38 109,287.68 101.11,290.22C99.57,290.37 97.99,290.69 96.46,290.37C94.71,288.86 93.53,286.8 91.83,285.24C90.58,285.75 89.39,286.42 88.21,287.08C87.56,286.32 86.92,285.56 86.28,284.81C84.19,287.99 82.68,292.35 78.6,293.42C72.93,295.14 66.98,296.69 61.01,295.74C56.78,295.11 52.5,295.56 48.28,296.07C48.09,293.51 47.9,290.94 47.71,288.38C46.22,288.12 44.73,287.86 43.24,287.61C43.91,284.78 44.57,281.95 45.27,279.14C44.4,278.46 43.53,277.78 42.65,277.11C39.61,280.94 36.89,285.09 33,288.14C35.47,280.12 42.33,273.91 50.14,271.19Z" style="fill:rgb(254,213,211);fill-rule:nonzero;"/>
    </g>
    <g transform="matrix(1,0,0,1,657.79,-189.902)">
        <path d="M33,288.14C36.89,285.09 39.61,280.94 42.65,277.11C43.53,277.78 44.4,278.46 45.27,279.14C44.57,281.95 43.91,284.78 43.24,287.61C44.73,287.86 46.22,288.12 47.71,288.38C47.9,290.94 48.09,293.51 48.28,296.07C52.5,295.56 56.78,295.11 61.01,295.74C66.98,296.69 72.93,295.14 78.6,293.42C82.68,292.35 84.19,287.99 86.28,284.81C86.92,285.56 87.56,286.32 88.21,287.08C89.39,286.42 90.58,285.75 91.83,285.24C93.53,286.8 94.71,288.86 96.46,290.37C97.99,290.69 99.57,290.37 101.11,290.22C93.85,292.61 87.18,296.53 81.03,301.04C76.75,304.13 73.33,308.28 70.85,312.92C67.49,319.17 64.07,325.73 63.8,332.97C63.18,340.89 65.37,348.85 69.41,355.63C71.6,359.2 75.26,361.44 78.44,364.03C72.99,363.39 68.01,361 62.99,358.96C55.37,355.91 48.51,351.04 43.33,344.67C31.65,331.52 25.91,312.94 29.71,295.61C30.45,293.01 30.96,290.07 33,288.14Z" style="fill:rgb(252,208,207);fill-rule:nonzero;"/>
    </g>
    <g transform="matrix(1,0,0,1,657.79,-189.902)">
        <path d="M101.11,290.22C109,287.68 117.35,288.38 125.39,289.65C127.34,289.99 127.64,292.41 128.58,293.81C117.92,300.4 109.08,309.63 101.66,319.66C97.64,324.72 93.47,329.72 90.45,335.48C85.61,344.6 80.09,353.65 78.44,364.03C75.26,361.44 71.6,359.2 69.41,355.63C65.37,348.85 63.18,340.89 63.8,332.97C64.07,325.73 67.49,319.17 70.85,312.92C73.33,308.28 76.75,304.13 81.03,301.04C87.18,296.53 93.85,292.61 101.11,290.22Z" style="fill:rgb(235,172,186);fill-rule:nonzero;"/>
    </g>
    <g transform="matrix(1,0,0,1,657.79,-189.902)">
        <path d="M395.2,301.19C405.86,298.82 417.03,298.19 427.79,300.26C434.78,302.06 441.52,305.27 447.06,309.95C454.58,316.79 459.25,327.31 457.42,337.54C456.29,333.93 455.3,330.28 454.68,326.55C453.83,326.88 452.99,327.21 452.15,327.54C452.39,325.33 452.61,323.12 452.8,320.91C450.43,324.36 449.67,328.51 449.41,332.61C446.31,332.83 443.21,333.05 440.11,333.27C440.12,333.89 440.13,335.14 440.14,335.76C442.71,335.92 445.28,336.08 447.85,336.25C447.86,336.88 447.87,338.12 447.88,338.74C444.75,338.89 441.53,338.7 438.51,339.64C436.16,340.64 434.32,342.49 432.37,344.08C431.62,336.16 432.22,328.21 431.88,320.28C429.19,320.04 426.51,319.82 423.83,319.62C425.83,319.29 427.84,318.96 429.86,318.65C429.42,317.83 428.98,317.01 428.55,316.2C426.17,316.59 423.8,317.02 421.44,317.49C421.77,318.34 422.11,319.18 422.45,320.04C418.77,320 415.08,320.04 411.4,320.14C411.11,321.74 410.83,323.35 410.55,324.97C406.88,324.37 402.35,324.3 400.64,320.35C397.43,320.37 394.23,320.69 391.05,321.08C393.9,323.12 396.67,325.29 399.12,327.8C398.57,327.88 397.47,328.05 396.91,328.13C387.99,321.97 376.46,319.27 365.89,322.2C364.84,322.32 363.8,322.37 362.76,322.35C370.26,311.45 382.48,304.28 395.2,301.19Z" style="fill:rgb(253,213,210);fill-rule:nonzero;"/>
    </g>
    <g transform="matrix(1,0,0,1,657.79,-189.902)">
        <path d="M421.44,317.49C423.8,317.02 426.17,316.59 428.55,316.2C428.98,317.01 429.42,317.83 429.86,318.65C427.84,318.96 425.83,319.29 423.83,319.62C426.51,319.82 429.19,320.04 431.88,320.28C432.22,328.21 431.62,336.16 432.37,344.08C434.32,342.49 436.16,340.64 438.51,339.64C441.53,338.7 444.75,338.89 447.88,338.74C447.87,338.12 447.86,336.88 447.85,336.25C445.28,336.08 442.71,335.92 440.14,335.76C440.13,335.14 440.12,333.89 440.11,333.27C443.21,333.05 446.31,332.83 449.41,332.61C449.67,328.51 450.43,324.36 452.8,320.91C452.61,323.12 452.39,325.33 452.15,327.54C452.99,327.21 453.83,326.88 454.68,326.55C455.3,330.28 456.29,333.93 457.42,337.54C458.2,341.12 456.98,344.76 456.26,348.25C453.18,361.23 445.36,372.68 435.47,381.46C425.04,389.23 412.57,394.02 399.92,396.69C400.02,396.12 400.23,394.97 400.33,394.39C403.58,393.21 407.1,392.16 409.48,389.49C415.35,382.85 417.83,373.72 417.3,364.97C417.24,356 413.74,347.46 409.1,339.92C406.09,335.04 401.46,331.49 396.91,328.13C397.47,328.05 398.57,327.88 399.12,327.8C396.67,325.29 393.9,323.12 391.05,321.08C394.23,320.69 397.43,320.37 400.64,320.35C402.35,324.3 406.88,324.37 410.55,324.97C410.83,323.35 411.11,321.74 411.4,320.14C415.08,320.04 418.77,320 422.45,320.04C422.11,319.18 421.77,318.34 421.44,317.49Z" style="fill:rgb(251,207,205);fill-rule:nonzero;"/>
    </g>
    <g transform="matrix(1,0,0,1,657.79,-189.902)">
        <path d="M365.89,322.2C376.46,319.27 387.99,321.97 396.91,328.13C401.46,331.49 406.09,335.04 409.1,339.92C413.74,347.46 417.24,356 417.3,364.97C417.83,373.72 415.35,382.85 409.48,389.49C407.1,392.16 403.58,393.21 400.33,394.39C399.34,384.06 397.06,373.77 392.81,364.27C389.53,355.7 385.75,347.2 380.15,339.85C375.6,333.81 371.13,327.67 365.89,322.2Z" style="fill:rgb(237,172,187);fill-rule:nonzero;"/>
    </g>
    <g transform="matrix(1,0,0,1,657.79,-189.902)">
        <path d="M499.44,403.48C505.73,391.43 509.88,378.28 511.8,364.83C511.92,365.99 512.07,367.15 512.24,368.31C515.3,369.14 518.65,369.7 521.11,371.87C524.21,374.55 524.9,379.16 528.43,381.44C530.55,385.43 531.84,389.8 532.46,394.27C524.84,390.4 518.18,384.9 512.15,378.9C509.62,387.05 507.35,395.45 502.74,402.73C497.27,412.47 489.96,421.26 480.77,427.71C481.27,426.09 481.9,424.46 483.26,423.37C489.73,417.71 494.73,410.6 499.44,403.48Z" style="fill:rgb(191,190,201);fill-rule:nonzero;"/>
    </g>
    <g transform="matrix(1,0,0,1,657.79,-189.902)">
        <path d="M134.61,385.62C144.53,381.49 156.32,383.76 164.54,390.46C171.12,396.32 175.56,404.58 176.51,413.37C177.5,423.05 177.8,433.64 172.07,442.04C166.97,447.82 160.6,452.62 153.31,455.25C150.01,456.55 146.43,456.02 143.04,455.45C143.27,454.82 143.73,453.57 143.96,452.94C151.76,452.39 159.61,448.61 164.12,442.06C169.51,435.02 170.74,425.69 170.13,417.08C169.33,408.18 163.44,400.44 155.72,396.26C148.96,393.02 141.06,392.35 133.77,393.95C126.41,395.98 119.64,400.74 115.73,407.37C115.74,405.86 115.69,404.35 115.73,402.85C119.32,394.77 126.07,388.2 134.61,385.62Z" style="fill:rgb(248,250,249);fill-rule:nonzero;"/>
    </g>
    <g transform="matrix(1,0,0,1,657.79,-189.902)">
        <path d="M133.77,393.95C141.06,392.35 148.96,393.02 155.72,396.26C163.44,400.44 169.33,408.18 170.13,417.08C170.74,425.69 169.51,435.02 164.12,442.06C159.61,448.61 151.76,452.39 143.96,452.94C142.03,452.81 140.1,452.61 138.2,452.32C121.1,449.36 109.82,430.29 113.78,413.76C114.3,411.59 115.04,409.49 115.73,407.37C119.64,400.74 126.41,395.98 133.77,393.95M151.67,429.81C153.37,431.87 155.58,433.43 158.11,434.33C156.98,431.6 154.42,430.32 151.67,429.81M144.38,433.47C140.78,434.4 137.6,438.65 139.78,442.23C143.82,446.76 152.14,446.74 155.71,441.66C155.87,439.17 154.56,436.79 153.45,434.64C151.23,432.03 147.29,432.38 144.38,433.47Z" style="fill:rgb(5,5,7);fill-rule:nonzero;"/>
    </g>
    <g transform="matrix(1,0,0,1,657.79,-189.902)">
        <path d="M199.84,405.83C206.88,400.79 215.18,397.13 223.94,396.87C236.89,396.61 250.24,401.23 259.2,410.82C272.2,423.72 275.8,443.15 274.57,460.8C273.3,471.93 269.84,482.74 264.4,492.53C261.69,496.97 258.08,500.81 254.01,504.03C249.52,507.49 244.17,509.53 239.38,512.5C238.36,512.31 237.33,512.17 236.3,512.09C225.9,512.79 215.27,512.09 205.27,509.02C192.1,502.4 182.54,489.05 180.39,474.49C179.2,462.77 178.71,450.91 180.25,439.19C181.85,433.05 183.43,426.84 186.12,421.08C189.38,414.99 194.14,409.72 199.84,405.83Z" style="fill:rgb(6,7,9);fill-rule:nonzero;"/>
    </g>
    <g transform="matrix(1,0,0,1,657.79,-189.902)">
        <path d="M111.67,429.38C111.97,420.45 110.71,410.8 115.73,402.85C115.69,404.35 115.74,405.86 115.73,407.37C115.04,409.49 114.3,411.59 113.78,413.76C109.82,430.29 121.1,449.36 138.2,452.32C137.11,453.49 136.03,454.66 134.96,455.84C133.71,454.96 132.47,454.08 131.23,453.2C133,457.67 134.07,463.08 131.47,467.45C130.22,469.69 127.45,472.23 129.56,474.85C131.6,475.32 134.03,474.75 135.77,476.11C137.53,478.42 137.96,481.4 138.76,484.13C138.1,487.02 137.64,489.95 136.88,492.83C137.15,487.72 135.04,482.88 131.02,479.7C125.47,475.28 118.18,473.93 111.28,473.32C109.74,473.17 108.2,473.02 106.67,472.88C108.38,480.61 112.17,487.59 116.17,494.34C112.59,493.09 109.6,490.7 106.86,488.15C104.9,491.06 102.9,493.95 100.81,496.77C101.46,497.83 102.11,498.9 102.77,499.97C102.11,500.73 101.46,501.48 100.81,502.25C95.84,496.76 93.02,489.84 89.59,483.39C85.74,476.08 84.1,467.92 82.1,459.98C80.43,453.34 79.29,446.59 78.11,439.85C77.1,434.24 77.09,428.47 75.53,422.97C74.46,419.32 74.13,415.52 73.9,411.75C74.97,414.45 76.01,417.16 77.05,419.87C77.92,419.48 78.8,419.1 79.68,418.72C78.8,418.06 77.92,417.4 77.04,416.75C83.35,416.06 90,414.77 96.16,416.9C102.81,419.21 104.87,427.32 111.67,429.38Z" style="fill:rgb(173,170,178);fill-rule:nonzero;"/>
    </g>
    <g transform="matrix(1,0,0,1,657.79,-189.902)">
        <path d="M21.3,408.93C30.25,411.75 39.74,410.9 48.96,411.73C57.26,412.44 65.59,411.93 73.9,411.75C74.13,415.52 74.46,419.32 75.53,422.97C71.88,425.64 68.2,428.47 63.81,429.8C57.08,431.96 49.91,430.98 43.02,430.39C39.37,430.01 35.63,428.68 32.02,430.02C25.03,432.25 17.88,433.95 10.62,435.02C10.66,434.24 10.74,432.68 10.78,431.89C13.08,423.73 16.97,416.18 21.3,408.93Z" style="fill:rgb(206,204,210);fill-rule:nonzero;"/>
    </g>
    <g transform="matrix(1,0,0,1,657.79,-189.902)">
        <path d="M300.11,423.1C305.83,417.93 313.16,414.14 320.97,413.75C327.16,413.37 333.8,413.52 339.31,416.73C346.77,421.19 352.14,428.74 354.38,437.11C354.37,440.21 353.85,443.28 353.33,446.33C352.17,440.8 349.77,435.32 345.31,431.67C339.55,427.12 332.44,424.08 325.04,423.91C314.92,422.54 305.24,428.62 299.45,436.52C295.18,442.03 295.13,449.36 295.52,455.99C296.07,463.19 297.25,471.02 302.61,476.35C304.13,477.95 305.73,479.5 307.46,480.89C311.08,483.44 315.34,484.81 319.44,486.37C311.97,489.69 304.25,485.1 298.46,480.56C292.58,476.14 289.87,468.93 288.5,461.95C287.26,448.38 289.4,432.67 300.11,423.1Z" style="fill:rgb(251,252,249);fill-rule:nonzero;"/>
    </g>
    <g transform="matrix(1,0,0,1,657.79,-189.902)">
        <path d="M299.45,436.52C305.24,428.62 314.92,422.54 325.04,423.91C332.44,424.08 339.55,427.12 345.31,431.67C349.77,435.32 352.17,440.8 353.33,446.33C354.05,452.64 353.7,459.24 351.18,465.15C347.27,473.29 340.86,480.4 332.4,483.91C328.25,485.47 323.81,485.92 319.44,486.37C315.34,484.81 311.08,483.44 307.46,480.89C310.81,477.44 315.76,477.85 320.14,477.24C321.85,476.02 323.82,474.39 323.45,472.03C323.04,469.48 322.31,467 321.87,464.46C322.02,465.37 322.32,467.19 322.47,468.11C319.59,466.56 316.56,464.42 313.11,464.97C310.44,465.26 308.39,467.14 306.67,469.03C304.59,471 303.42,473.64 302.61,476.35C297.25,471.02 296.07,463.19 295.52,455.99C295.13,449.36 295.18,442.03 299.45,436.52Z" style="fill:rgb(4,5,6);fill-rule:nonzero;"/>
    </g>
    <g transform="matrix(1,0,0,1,657.79,-189.902)">
        <path d="M367.52,423.77C368.31,429.77 367.96,435.83 368,441.86C370.15,443.41 372.25,445.07 374.57,446.4C377.46,448.1 380.91,448.01 384.14,448.33C384.83,451.62 385.66,454.89 386.62,458.12C386.93,455.34 387.21,452.57 387.46,449.79C387.94,454.29 388.69,458.75 389.21,463.24C386.39,477.86 382.07,492.38 374.17,505.12C374.62,502.26 374.99,499.39 375.51,496.55C373.73,496.52 371.96,496.49 370.18,496.47C370.02,494.8 369.87,493.13 369.71,491.47C365.82,491.72 361.56,493.01 357.93,491.01C353.9,488.86 349.64,487.22 345.3,485.86C345.14,486.2 344.82,486.88 344.66,487.21C340.51,486.36 336.34,485.48 332.4,483.91C340.86,480.4 347.27,473.29 351.18,465.15C353.7,459.24 354.05,452.64 353.33,446.33C353.85,443.28 354.37,440.21 354.38,437.11C355.14,435.8 355.9,434.5 356.65,433.19C355.03,430.76 353.47,428.28 352.12,425.69C354.53,426.84 356.51,428.65 357.98,430.87C358.58,429.98 359.18,429.1 359.79,428.23C359.99,429.41 360.2,430.61 360.41,431.81C362.49,431.86 364.58,431.9 366.68,431.95C366.93,429.22 367.21,426.49 367.52,423.77Z" style="fill:rgb(172,167,176);fill-rule:nonzero;"/>
    </g>
    <g transform="matrix(1,0,0,1,657.79,-189.902)">
        <path d="M151.67,429.81C154.42,430.32 156.98,431.6 158.11,434.33C155.58,433.43 153.37,431.87 151.67,429.81Z" style="fill:rgb(44,46,49);fill-rule:nonzero;"/>
    </g>
    <g transform="matrix(1,0,0,1,657.79,-189.902)">
        <path d="M144.38,433.47C147.29,432.38 151.23,432.03 153.45,434.64C154.56,436.79 155.87,439.17 155.71,441.66C152.14,446.74 143.82,446.76 139.78,442.23C137.6,438.65 140.78,434.4 144.38,433.47Z" style="fill:rgb(251,253,253);fill-rule:nonzero;"/>
    </g>
    <g transform="matrix(1,0,0,1,657.79,-189.902)">
        <path d="M175.54,444.31C177.03,441.88 178.52,439.45 180.16,437.12C180.18,437.64 180.23,438.67 180.25,439.19C178.71,450.91 179.2,462.77 180.39,474.49C182.54,489.05 192.1,502.4 205.27,509.02C204.76,508.99 203.75,508.92 203.24,508.89C201.84,508.52 200.47,508.06 199.1,507.63C200.8,515.49 201.84,524.97 209.2,529.77C214.16,532.36 220.07,532.85 225.58,532.51C232.75,531.5 236.7,524.52 238.08,518.05C237.17,519.41 236.29,520.79 235.41,522.18C235.82,518.82 236.08,515.45 236.3,512.09C237.33,512.17 238.36,512.31 239.38,512.5C245.44,514.28 251.26,510.34 255.89,506.87C259.8,502.99 264.65,498.5 264.4,492.53C269.84,482.74 273.3,471.93 274.57,460.8C275.91,462.75 277.25,464.72 278.6,466.68C278.68,466.16 278.85,465.12 278.93,464.6C279.54,465.2 280.16,465.79 280.8,466.38C281.3,465.31 281.67,464.18 282.09,463.09C283.17,464.1 284.26,465.11 285.35,466.14C286.41,464.74 287.45,463.35 288.5,461.95C289.87,468.93 292.58,476.14 298.46,480.56C304.25,485.1 311.97,489.69 319.44,486.37C323.81,485.92 328.25,485.47 332.4,483.91C336.34,485.48 340.51,486.36 344.66,487.21C344.82,486.88 345.14,486.2 345.3,485.86C349.64,487.22 353.9,488.86 357.93,491.01C361.56,493.01 365.82,491.72 369.71,491.47C369.87,493.13 370.02,494.8 370.18,496.47C371.96,496.49 373.73,496.52 375.51,496.55C374.99,499.39 374.62,502.26 374.17,505.12C367.01,519.64 356.58,533.39 341.76,540.68C341,541.07 340.24,541.47 339.49,541.88C333.42,539.11 327.71,543.59 321.89,544.81C313.25,546.73 304.37,547.26 295.62,548.55C285.15,550.14 274.55,549.45 264.01,549.82C250.99,550.27 237.88,550.11 224.99,548.03C215.83,546.57 206.51,546.34 197.41,544.43C189.26,542.73 180.92,542.13 172.81,540.21C165.07,538.37 157.1,537.32 149.71,534.25C144.11,532.21 138.69,529.07 132.59,528.92L132.22,529.29C120.57,521.8 109.56,513.06 100.81,502.25C101.46,501.48 102.11,500.73 102.77,499.97C102.11,498.9 101.46,497.83 100.81,496.77C102.9,493.95 104.9,491.06 106.86,488.15C109.6,490.7 112.59,493.09 116.17,494.34C118.02,496.92 119.85,499.69 122.52,501.5C128.97,503.47 133.74,497.55 136.88,492.83C137.64,489.95 138.1,487.02 138.76,484.13C137.96,481.4 137.53,478.42 135.77,476.11C134.03,474.75 131.6,475.32 129.56,474.85C127.45,472.23 130.22,469.69 131.47,467.45C134.07,463.08 133,457.67 131.23,453.2C132.47,454.08 133.71,454.96 134.96,455.84C136.03,454.66 137.11,453.49 138.2,452.32C140.1,452.61 142.03,452.81 143.96,452.94C143.73,453.57 143.27,454.82 143.04,455.45C146.43,456.02 150.01,456.55 153.31,455.25C160.6,452.62 166.97,447.82 172.07,442.04C172.01,442.5 171.89,443.42 171.84,443.88C173.26,442.72 174.65,441.52 176.04,440.32C175.87,441.65 175.71,442.97 175.54,444.31M343.98,513.28C338.81,514.06 333.44,511.5 328.43,513.54C324.78,515.25 322.22,518.52 319.57,521.44C318.52,524.16 316.7,527.56 318.77,530.27C321.42,533.04 325.28,534.53 329.06,534.87C332.85,535.2 335.88,532.58 338.75,530.52C345.06,525.33 347.98,517.38 352.73,510.93C349.83,511.79 346.97,512.8 343.98,513.28Z" style="fill:rgb(180,175,183);fill-rule:nonzero;"/>
    </g>
    <g transform="matrix(1,0,0,1,657.79,-189.902)">
        <path d="M393.51,443.78C404.98,442.74 416.5,444.22 428,443.87C433.8,443.99 439.76,442.82 445.45,444.36C449.9,449.66 455.24,454.15 459.36,459.74C453.05,460.01 446.75,458.92 440.45,459.58C431.9,460.08 423.18,461.11 414.72,459.29C406.41,457.51 399.68,451.98 393.2,446.8C393.32,445.79 393.42,444.78 393.51,443.78Z" style="fill:rgb(208,203,207);fill-rule:nonzero;"/>
    </g>
    <g transform="matrix(1,0,0,1,657.79,-189.902)">
        <path d="M306.67,469.03C308.39,467.14 310.44,465.26 313.11,464.97C316.56,464.42 319.59,466.56 322.47,468.11C322.32,467.19 322.02,465.37 321.87,464.46C322.31,467 323.04,469.48 323.45,472.03C323.82,474.39 321.85,476.02 320.14,477.24C315.96,477.19 311.2,477.24 307.87,474.31C306.1,473.08 306.72,470.84 306.67,469.03Z" style="fill:rgb(253,253,251);fill-rule:nonzero;"/>
    </g>
    <g transform="matrix(1,0,0,1,657.79,-189.902)">
        <path d="M302.61,476.35C303.42,473.64 304.59,471 306.67,469.03C306.72,470.84 306.1,473.08 307.87,474.31C311.2,477.24 315.96,477.19 320.14,477.24C315.76,477.85 310.81,477.44 307.46,480.89C305.73,479.5 304.13,477.95 302.61,476.35Z" style="fill:rgb(26,22,19);fill-rule:nonzero;"/>
    </g>
    <g transform="matrix(1,0,0,1,657.79,-189.902)">
        <path d="M106.67,472.88C108.2,473.02 109.74,473.17 111.28,473.32C110.87,473.48 110.04,473.81 109.63,473.98L108.91,474.25C110.86,477.63 110.98,482.66 114.82,484.56C116.06,487.89 117.33,491.22 118.86,494.44C118.91,492.31 118.91,490.2 119.05,488.08C119.16,487.83 119.39,487.33 119.5,487.08C120.28,489.94 121.02,492.82 121.74,495.71C123.57,495.41 125.95,495.88 127.12,494.06C129.3,491.39 131.14,488.47 133.21,485.73C131.93,484.2 130.65,482.7 129.36,481.19C129.77,480.82 130.61,480.07 131.02,479.7C135.04,482.88 137.15,487.72 136.88,492.83C133.74,497.55 128.97,503.47 122.52,501.5C119.85,499.69 118.02,496.92 116.17,494.34C112.17,487.59 108.38,480.61 106.67,472.88Z" style="fill:rgb(100,70,56);fill-rule:nonzero;"/>
    </g>
    <g transform="matrix(1,0,0,1,657.79,-189.902)">
        <path d="M111.28,473.32C118.18,473.93 125.47,475.28 131.02,479.7C130.61,480.07 129.77,480.82 129.36,481.19C130.65,482.7 131.93,484.2 133.21,485.73C131.14,488.47 129.3,491.39 127.12,494.06C125.95,495.88 123.57,495.41 121.74,495.71C121.02,492.82 120.28,489.94 119.5,487.08C119.39,487.33 119.16,487.83 119.05,488.08C117.63,486.92 116.24,485.72 114.82,484.56C116.67,484.97 118.53,485.31 120.39,485.68C119.7,484.38 119.01,483.08 118.32,481.79C120.17,480.94 122.01,480.08 123.85,479.21C119.95,475.7 114.47,475.34 109.63,473.98C110.04,473.81 110.87,473.48 111.28,473.32Z" style="fill:rgb(124,89,71);fill-rule:nonzero;"/>
    </g>
    <g transform="matrix(1,0,0,1,657.79,-189.902)">
        <path d="M108.91,474.25L109.63,473.98C114.47,475.34 119.95,475.7 123.85,479.21C122.01,480.08 120.17,480.94 118.32,481.79C119.01,483.08 119.7,484.38 120.39,485.68C118.53,485.31 116.67,484.97 114.82,484.56C110.98,482.66 110.86,477.63 108.91,474.25Z" style="fill:rgb(155,105,97);fill-rule:nonzero;"/>
    </g>
    <g transform="matrix(1,0,0,1,657.79,-189.902)">
        <path d="M114.82,484.56C116.24,485.72 117.63,486.92 119.05,488.08C118.91,490.2 118.91,492.31 118.86,494.44C117.33,491.22 116.06,487.89 114.82,484.56Z" style="fill:rgb(188,131,132);fill-rule:nonzero;"/>
    </g>
    <g transform="matrix(1,0,0,1,657.79,-189.902)">
        <path d="M264.4,492.53C264.65,498.5 259.8,502.99 255.89,506.87C251.26,510.34 245.44,514.28 239.38,512.5C244.17,509.53 249.52,507.49 254.01,504.03C258.08,500.81 261.69,496.97 264.4,492.53Z" style="fill:rgb(231,234,240);fill-rule:nonzero;"/>
    </g>
    <g transform="matrix(1,0,0,1,657.79,-189.902)">
        <path d="M199.1,507.63C200.47,508.06 201.84,508.52 203.24,508.89C203.91,513.39 203.08,518.84 206.72,522.29C213.2,528.74 223.97,530.58 232.04,526.07C233.56,525.17 234.49,523.61 235.41,522.18C236.29,520.79 237.17,519.41 238.08,518.05C236.7,524.52 232.75,531.5 225.58,532.51C220.07,532.85 214.16,532.36 209.2,529.77C201.84,524.97 200.8,515.49 199.1,507.63Z" style="fill:rgb(121,57,51);fill-rule:nonzero;"/>
    </g>
    <g transform="matrix(1,0,0,1,657.79,-189.902)">
        <path d="M203.24,508.89C203.75,508.92 204.76,508.99 205.27,509.02C215.27,512.09 225.9,512.79 236.3,512.09C236.08,515.45 235.82,518.82 235.41,522.18C234.49,523.61 233.56,525.17 232.04,526.07C223.97,530.58 213.2,528.74 206.72,522.29C203.08,518.84 203.91,513.39 203.24,508.89Z" style="fill:rgb(254,254,253);fill-rule:nonzero;"/>
    </g>
    <g transform="matrix(1,0,0,1,657.79,-189.902)">
        <path d="M343.98,513.28C346.97,512.8 349.83,511.79 352.73,510.93C347.98,517.38 345.06,525.33 338.75,530.52C336.14,529.35 333.32,528.61 330.91,527.07C329.24,525.53 328.16,523.49 326.92,521.63C326.25,521.86 325.6,522.1 324.94,522.35C324.21,521.79 323.48,521.23 322.76,520.67C321.69,520.92 320.63,521.17 319.57,521.44C322.22,518.52 324.78,515.25 328.43,513.54C333.44,511.5 338.81,514.06 343.98,513.28M332.89,516.06C335.88,518.02 338.47,520.69 339.01,524.38C343.09,522.54 345.83,518.91 348.2,515.26C343.1,515.54 338,515.9 332.89,516.06Z" style="fill:rgb(115,70,73);fill-rule:nonzero;"/>
    </g>
    <g transform="matrix(1,0,0,1,657.79,-189.902)">
        <path d="M332.89,516.06C338,515.9 343.1,515.54 348.2,515.26C345.83,518.91 343.09,522.54 339.01,524.38C338.47,520.69 335.88,518.02 332.89,516.06Z" style="fill:rgb(167,109,107);fill-rule:nonzero;"/>
    </g>
    <g transform="matrix(1,0,0,1,657.79,-189.902)">
        <path d="M319.57,521.44C320.63,521.17 321.69,520.92 322.76,520.67C323.48,521.23 324.21,521.79 324.94,522.35C325.6,522.1 326.25,521.86 326.92,521.63C328.16,523.49 329.24,525.53 330.91,527.07C333.32,528.61 336.14,529.35 338.75,530.52C335.88,532.58 332.85,535.2 329.06,534.87C325.28,534.53 321.42,533.04 318.77,530.27C316.7,527.56 318.52,524.16 319.57,521.44Z" style="fill:rgb(88,51,49);fill-rule:nonzero;"/>
    </g>
    <g transform="matrix(1,0,0,1,657.79,-189.902)">
        <path d="M132.59,528.92C138.69,529.07 144.11,532.21 149.71,534.25C157.1,537.32 165.07,538.37 172.81,540.21C180.92,542.13 189.26,542.73 197.41,544.43C206.51,546.34 215.83,546.57 224.99,548.03C237.88,550.11 250.99,550.27 264.01,549.82C274.55,549.45 285.15,550.14 295.62,548.55C304.37,547.26 313.25,546.73 321.89,544.81C327.71,543.59 333.42,539.11 339.49,541.88C335.69,544.01 332,546.4 327.9,547.93C321.68,550.27 315.08,551.35 308.57,552.61C296.18,554.75 283.63,556.74 271,555.92C246.96,555.36 222.99,553.11 199.17,549.85C185.27,547.69 171.23,545.71 157.88,541.1C150.99,538.71 143.96,536.63 137.3,533.64C135.14,532.76 133.87,530.73 132.59,528.92Z" style="fill:rgb(209,203,215);fill-rule:nonzero;"/>
    </g>
    <g transform="matrix(1,0,0,1,657.79,-189.902)">
        <path d="M132.22,529.29L132.59,528.92C133.87,530.73 135.14,532.76 137.3,533.64C143.96,536.63 150.99,538.71 157.88,541.1C171.23,545.71 185.27,547.69 199.17,549.85C222.99,553.11 246.96,555.36 271,555.92C283.63,556.74 296.18,554.75 308.57,552.61C315.08,551.35 321.68,550.27 327.9,547.93C332,546.4 335.69,544.01 339.49,541.88C340.24,541.47 341,541.07 341.76,540.68C352.79,556.1 363.82,572.34 367.87,591.17C371.41,605.08 372.26,619.5 371.43,633.79C370.54,642.3 370.42,651.12 367.15,659.15C367.18,658.66 367.25,657.68 367.28,657.18C364.04,659.93 360.73,662.63 357,664.7C356.46,664.46 355.92,664.22 355.39,663.98C357.42,658.5 358.73,652.53 357.24,646.74C355.8,638.62 350.07,632.15 343.92,627.06C339.63,623.39 333.78,622.97 328.42,622.41C320.11,621.63 311.35,621.11 303.48,624.38C299.56,625.89 296.25,628.6 293.57,631.79C294.88,620.12 294.73,607.57 289.03,596.98C280.68,581.13 263.6,571.09 246.11,568.91C228.71,566.98 210.17,568.96 194.84,577.93C185.35,583.5 179.49,593.27 175.05,603.02C172.83,607.96 172,613.39 171.72,618.77C171.47,622.52 171.28,626.26 171.14,630.02C166.78,627.34 162.14,625.03 157.09,624.02C146.02,621.65 134,619.76 123.19,624.25C115.87,627.62 108.47,632.52 105.28,640.25C101.86,648.66 105.97,658.23 101.71,666.43C96.35,660.9 94.38,653.17 93.28,645.78C91.68,633.25 92.23,620.58 92.87,608.01C93.26,599.59 96,591.55 98.6,583.61C105.43,563.21 117.23,544.67 132.22,529.29Z" style="fill:rgb(168,165,173);fill-rule:nonzero;"/>
    </g>
    <g transform="matrix(1,0,0,1,657.79,-189.902)">
        <path d="M194.84,577.93C210.17,568.96 228.71,566.98 246.11,568.91C263.6,571.09 280.68,581.13 289.03,596.98C294.73,607.57 294.88,620.12 293.57,631.79C291.99,638.84 290.18,645.85 288.73,652.92C277.07,652.58 265.55,654.69 253.93,655.21C243.63,655.72 233.31,656.29 223,655.87C210.04,655.57 197.13,654.2 184.19,653.61C181.6,653.4 179.02,653.07 176.44,652.78C174.68,641.47 170.81,630.36 171.72,618.77C172,613.39 172.83,607.96 175.05,603.02C179.49,593.27 185.35,583.5 194.84,577.93Z" style="fill:rgb(250,255,199);fill-rule:nonzero;"/>
    </g>
    <g transform="matrix(1,0,0,1,657.79,-189.902)">
        <path d="M171.14,630.02C171.28,626.26 171.47,622.52 171.72,618.77C170.81,630.36 174.68,641.47 176.44,652.78C179.02,653.07 181.6,653.4 184.19,653.61C181.81,653.63 179.44,653.78 177.07,653.92C176.51,660.43 177.1,666.96 178.58,673.32C177.78,673.88 176.98,674.46 176.2,675.05C173.26,677.67 169.75,679.55 165.79,679.98C163.96,680.3 162.15,680.7 160.35,681.12C162.88,682.99 165.51,684.71 168.25,686.26C165.8,687.82 162.98,688.75 160.05,688.42C146.19,687.63 132.55,683.9 120.01,677.99C113.52,674.85 106.66,671.85 101.71,666.43C105.97,658.23 101.86,648.66 105.28,640.25C108.47,632.52 115.87,627.62 123.19,624.25C134,619.76 146.02,621.65 157.09,624.02C162.14,625.03 166.78,627.34 171.14,630.02Z" style="fill:rgb(189,183,192);fill-rule:nonzero;"/>
    </g>
    <g transform="matrix(1,0,0,1,657.79,-189.902)">
        <path d="M303.48,624.38C311.35,621.11 320.11,621.63 328.42,622.41C333.78,622.97 339.63,623.39 343.92,627.06C350.07,632.15 355.8,638.62 357.24,646.74C358.73,652.53 357.42,658.5 355.39,663.98C355.92,664.22 356.46,664.46 357,664.7C360.73,662.63 364.04,659.93 367.28,657.18C367.25,657.68 367.18,658.66 367.15,659.15C365.61,663.36 362.94,667.09 359.69,670.16C354.43,673.55 348.84,676.39 343.33,679.34C330.23,686.23 315.22,688.55 300.55,688.19C299.64,684.94 301.31,682.04 303,679.4C299.24,678.87 295.41,679.29 291.83,680.55C291.49,680.65 290.82,680.86 290.48,680.97C290.12,680.96 289.41,680.95 289.06,680.94C290.05,678.52 289.94,676.1 287.76,674.41C287.16,674.13 286.56,673.86 285.96,673.62C287.49,666.81 288.42,659.89 288.73,652.92C290.18,645.85 291.99,638.84 293.57,631.79C296.25,628.6 299.56,625.89 303.48,624.38Z" style="fill:rgb(187,180,189);fill-rule:nonzero;"/>
    </g>
    <g transform="matrix(1,0,0,1,657.79,-189.902)">
        <path d="M253.93,655.21C265.55,654.69 277.07,652.58 288.73,652.92C288.42,659.89 287.49,666.81 285.96,673.62C286.56,673.86 287.16,674.13 287.76,674.41C286.61,675.24 285.46,676.08 284.42,677.06C284.37,679.7 287.03,680.32 289.06,680.94C289.41,680.95 290.12,680.96 290.48,680.97C289.82,681.2 288.5,681.66 287.85,681.89C287.39,684.33 286.91,686.76 286.38,689.19C286.24,686.23 286.16,683.27 286.02,680.32C284.6,681.4 283.22,682.53 281.85,683.68C282.39,681 282.92,678.31 283.42,675.63C277.21,675.37 271.21,677.38 265.03,677.55C253.02,678.01 241.01,678.52 229,678.72C215.01,678.58 201.07,677.16 187.17,675.76C183.53,675.27 179.87,674.98 176.2,675.05C176.98,674.46 177.78,673.88 178.58,673.32C177.1,666.96 176.51,660.43 177.07,653.92C179.44,653.78 181.81,653.63 184.19,653.61C197.13,654.2 210.04,655.57 223,655.87C233.31,656.29 243.63,655.72 253.93,655.21Z" style="fill:rgb(171,169,173);fill-rule:nonzero;"/>
    </g>
    <g transform="matrix(1,0,0,1,657.79,-189.902)">
        <path d="M165.79,679.98C169.75,679.55 173.26,677.67 176.2,675.05C179.87,674.98 183.53,675.27 187.17,675.76C186.05,675.91 184.95,676.09 183.84,676.29C182.89,679.08 181.75,681.91 179.61,684.03C175.8,680.7 170.79,679.29 165.79,679.98Z" style="fill:rgb(138,95,112);fill-rule:nonzero;"/>
    </g>
    <g transform="matrix(1,0,0,1,657.79,-189.902)">
        <path d="M284.42,677.06C285.46,676.08 286.61,675.24 287.76,674.41C289.94,676.1 290.05,678.52 289.06,680.94C287.03,680.32 284.37,679.7 284.42,677.06Z" style="fill:rgb(109,57,62);fill-rule:nonzero;"/>
    </g>
    <g transform="matrix(1,0,0,1,657.79,-189.902)">
        <path d="M291.83,680.55C295.41,679.29 299.24,678.87 303,679.4C301.31,682.04 299.64,684.94 300.55,688.19C297.76,688.22 294.93,688.38 292.2,687.74C290.43,685.63 291.07,682.9 291.83,680.55Z" style="fill:rgb(145,68,68);fill-rule:nonzero;"/>
    </g>
    <g transform="matrix(1,0,0,1,657.79,-189.902)">
        <path d="M160.35,681.12C162.15,680.7 163.96,680.3 165.79,679.98C170.79,679.29 175.8,680.7 179.61,684.03C179.28,684.23 178.62,684.65 178.29,684.86C176.81,684.5 175.35,684.08 173.9,683.68C173.52,684.89 173.16,686.12 172.79,687.35C171.7,686.79 170.66,686.15 169.62,685.54C169.27,685.72 168.59,686.08 168.25,686.26C165.51,684.71 162.88,682.99 160.35,681.12Z" style="fill:rgb(107,78,68);fill-rule:nonzero;"/>
    </g>
    <g transform="matrix(1,0,0,1,657.79,-189.902)">
        <path d="M172.79,687.35C173.16,686.12 173.52,684.89 173.9,683.68C175.35,684.08 176.81,684.5 178.29,684.86C178.16,685.56 177.9,686.95 177.77,687.64C176.11,687.57 174.44,687.52 172.79,687.35Z" style="fill:rgb(134,110,121);fill-rule:nonzero;"/>
    </g>
    <g transform="matrix(1,0,0,1,-35.5143,-25.9563)">
        <g transform="matrix(106.667,0,0,106.667,89.1766,246.057)">
            <path d="M0.635,-0.531L0.627,-0.504C0.624,-0.493 0.621,-0.485 0.617,-0.482C0.613,-0.478 0.605,-0.475 0.593,-0.472C0.587,-0.47 0.583,-0.469 0.581,-0.468L0.592,-0.459C0.59,-0.451 0.584,-0.442 0.576,-0.434C0.568,-0.433 0.562,-0.432 0.558,-0.431C0.555,-0.429 0.55,-0.425 0.546,-0.42L0.554,-0.416L0.535,-0.401L0.51,-0.39L0.499,-0.382L0.47,-0.375C0.468,-0.375 0.459,-0.37 0.444,-0.361L0.427,-0.351L0.42,-0.353L0.398,-0.345L0.357,-0.335L0.331,-0.326L0.307,-0.328L0.293,-0.321L0.279,-0.322L0.269,-0.318L0.256,-0.32C0.246,-0.32 0.237,-0.318 0.227,-0.314L0.186,-0.297L0.176,-0.293L0.174,-0.284L0.178,-0.228L0.174,-0.218L0.181,-0.169L0.181,-0.159C0.171,-0.158 0.166,-0.154 0.166,-0.148L0.166,-0.146L0.178,-0.119L0.182,-0.056L0.184,-0.032C0.184,-0.024 0.181,-0.018 0.174,-0.016L0.158,-0.011L0.143,0.003L0.131,0.004L0.108,0.016C0.105,0.017 0.104,0.018 0.103,0.018C0.096,0.018 0.092,0.014 0.092,0.005C0.092,0.002 0.092,-0.001 0.093,-0.002L0.103,-0.02L0.1,-0.049L0.11,-0.128L0.103,-0.164L0.112,-0.214L0.11,-0.232L0.118,-0.262L0.118,-0.277L0.111,-0.277L0.11,-0.287L0.112,-0.296L0.118,-0.31L0.117,-0.318L0.118,-0.33L0.111,-0.34L0.108,-0.395L0.11,-0.408L0.111,-0.43L0.115,-0.445L0.108,-0.463L0.11,-0.497L0.109,-0.505L0.117,-0.51L0.115,-0.537L0.103,-0.537C0.101,-0.547 0.1,-0.555 0.1,-0.56C0.1,-0.566 0.101,-0.576 0.103,-0.591C0.103,-0.591 0.104,-0.591 0.104,-0.591C0.104,-0.592 0.104,-0.592 0.104,-0.592C0.104,-0.594 0.104,-0.595 0.103,-0.596C0.102,-0.598 0.1,-0.598 0.099,-0.598L0.084,-0.603L0.076,-0.61L0.067,-0.611L0.068,-0.629L0.076,-0.632L0.115,-0.647L0.141,-0.657L0.239,-0.652L0.26,-0.656C0.265,-0.657 0.274,-0.658 0.286,-0.658L0.304,-0.658L0.336,-0.655L0.358,-0.654L0.366,-0.655L0.384,-0.656L0.387,-0.655L0.395,-0.646L0.439,-0.646L0.464,-0.636L0.476,-0.642L0.507,-0.636L0.516,-0.627C0.522,-0.621 0.527,-0.617 0.531,-0.616L0.568,-0.614L0.601,-0.595L0.619,-0.585C0.617,-0.581 0.616,-0.579 0.616,-0.578C0.616,-0.574 0.62,-0.569 0.627,-0.564L0.628,-0.551L0.635,-0.531ZM0.562,-0.521L0.554,-0.536L0.551,-0.548L0.516,-0.583C0.512,-0.589 0.508,-0.593 0.507,-0.594C0.505,-0.596 0.502,-0.597 0.498,-0.599L0.492,-0.594C0.448,-0.612 0.412,-0.621 0.385,-0.621L0.338,-0.621L0.297,-0.628L0.269,-0.618L0.206,-0.62C0.197,-0.618 0.19,-0.615 0.185,-0.61C0.181,-0.604 0.178,-0.597 0.178,-0.589L0.177,-0.552L0.176,-0.542L0.167,-0.536C0.172,-0.533 0.176,-0.529 0.178,-0.526C0.181,-0.522 0.182,-0.518 0.182,-0.514C0.182,-0.512 0.181,-0.509 0.18,-0.507L0.174,-0.484L0.18,-0.464L0.18,-0.439L0.185,-0.381L0.183,-0.373L0.178,-0.373C0.171,-0.373 0.168,-0.37 0.168,-0.363C0.168,-0.358 0.17,-0.355 0.173,-0.354L0.188,-0.355L0.232,-0.355L0.244,-0.357L0.252,-0.346L0.266,-0.349L0.302,-0.359L0.369,-0.366L0.408,-0.378L0.442,-0.389C0.456,-0.393 0.464,-0.398 0.467,-0.402L0.477,-0.416L0.496,-0.429L0.498,-0.437L0.511,-0.445L0.516,-0.452L0.55,-0.484L0.556,-0.504L0.562,-0.521Z" style="fill:rgb(161,182,246);fill-rule:nonzero;"/>
        </g>
        <g transform="matrix(106.667,0,0,106.667,152.979,246.057)">
            <path d="M0.406,-0.409C0.406,-0.408 0.405,-0.406 0.404,-0.405L0.376,-0.383L0.361,-0.367L0.352,-0.364L0.339,-0.372L0.33,-0.381L0.301,-0.382L0.273,-0.393L0.262,-0.396C0.258,-0.389 0.254,-0.384 0.249,-0.383C0.244,-0.381 0.235,-0.38 0.221,-0.38L0.205,-0.373L0.193,-0.377L0.183,-0.369L0.144,-0.339C0.138,-0.33 0.134,-0.315 0.133,-0.292L0.132,-0.255L0.121,-0.248C0.128,-0.237 0.131,-0.226 0.131,-0.216L0.138,-0.216L0.139,-0.202L0.141,-0.139L0.142,-0.106L0.14,-0.076C0.13,-0.07 0.125,-0.066 0.125,-0.062C0.125,-0.061 0.126,-0.058 0.129,-0.053L0.142,-0.056L0.141,-0.052L0.145,-0.032L0.145,-0.03C0.145,-0.025 0.142,-0.02 0.137,-0.015C0.132,-0.009 0.127,-0.007 0.121,-0.006L0.102,-0.004L0.073,0.011L0.061,0.004L0.063,-0.006L0.07,-0.034L0.067,-0.072L0.07,-0.077L0.08,-0.077L0.08,-0.083L0.079,-0.092L0.073,-0.106L0.072,-0.126L0.068,-0.143L0.068,-0.157L0.069,-0.173C0.07,-0.174 0.072,-0.176 0.073,-0.178C0.074,-0.18 0.076,-0.182 0.079,-0.186C0.081,-0.19 0.084,-0.194 0.087,-0.199L0.092,-0.211L0.091,-0.216C0.076,-0.216 0.068,-0.219 0.068,-0.226L0.07,-0.263L0.067,-0.3C0.068,-0.303 0.07,-0.306 0.073,-0.309L0.073,-0.323L0.067,-0.329L0.065,-0.341L0.064,-0.367L0.053,-0.388C0.056,-0.4 0.061,-0.41 0.069,-0.418L0.099,-0.434L0.117,-0.446C0.126,-0.443 0.133,-0.44 0.136,-0.437C0.139,-0.433 0.141,-0.427 0.141,-0.419L0.141,-0.403C0.141,-0.391 0.144,-0.385 0.149,-0.385L0.151,-0.385L0.176,-0.398L0.2,-0.407L0.242,-0.43L0.256,-0.436L0.267,-0.433L0.289,-0.44C0.302,-0.444 0.311,-0.446 0.318,-0.446L0.339,-0.444C0.345,-0.435 0.351,-0.43 0.355,-0.43C0.356,-0.431 0.356,-0.431 0.356,-0.431C0.357,-0.431 0.357,-0.431 0.358,-0.431L0.369,-0.437C0.372,-0.438 0.374,-0.439 0.375,-0.439C0.383,-0.439 0.391,-0.435 0.398,-0.426C0.403,-0.42 0.406,-0.414 0.406,-0.409Z" style="fill:rgb(161,182,246);fill-rule:nonzero;"/>
        </g>
        <g transform="matrix(106.667,0,0,106.667,191,246.057)">
            <path d="M0.572,-0.248L0.561,-0.25L0.563,-0.239L0.552,-0.231C0.553,-0.225 0.555,-0.222 0.556,-0.22C0.557,-0.219 0.56,-0.217 0.565,-0.214L0.566,-0.204C0.566,-0.169 0.552,-0.13 0.525,-0.089C0.519,-0.08 0.511,-0.07 0.502,-0.06C0.493,-0.05 0.487,-0.043 0.485,-0.04L0.47,-0.036L0.378,0.007L0.327,0.009L0.29,0.018L0.246,0.017L0.231,0.021L0.187,0.013L0.169,0.012L0.159,0.001L0.132,-0.003L0.119,-0.01C0.108,-0.018 0.099,-0.025 0.091,-0.031C0.084,-0.037 0.079,-0.04 0.077,-0.042C0.075,-0.044 0.073,-0.046 0.072,-0.048L0.061,-0.069L0.046,-0.081L0.034,-0.112L0.03,-0.124L0.035,-0.128C0.035,-0.132 0.036,-0.136 0.037,-0.137C0.038,-0.139 0.041,-0.14 0.046,-0.142L0.043,-0.15L0.027,-0.16L0.027,-0.18C0.027,-0.194 0.028,-0.208 0.032,-0.222C0.035,-0.235 0.041,-0.251 0.049,-0.269C0.062,-0.298 0.071,-0.314 0.077,-0.318L0.097,-0.331L0.108,-0.35C0.112,-0.357 0.117,-0.361 0.122,-0.364L0.168,-0.388L0.194,-0.409L0.225,-0.421L0.28,-0.44L0.325,-0.444L0.361,-0.445C0.381,-0.445 0.391,-0.439 0.391,-0.428C0.397,-0.423 0.4,-0.421 0.402,-0.421C0.407,-0.421 0.412,-0.426 0.418,-0.435L0.43,-0.432L0.462,-0.421L0.475,-0.41L0.493,-0.399L0.511,-0.371C0.516,-0.365 0.526,-0.362 0.54,-0.362C0.549,-0.35 0.556,-0.339 0.559,-0.327C0.562,-0.316 0.566,-0.295 0.57,-0.264L0.572,-0.248ZM0.501,-0.236L0.483,-0.292L0.48,-0.317L0.475,-0.326L0.472,-0.326C0.47,-0.326 0.467,-0.327 0.466,-0.328C0.464,-0.329 0.462,-0.33 0.46,-0.333L0.436,-0.363L0.428,-0.375L0.387,-0.394C0.383,-0.401 0.38,-0.405 0.377,-0.408C0.374,-0.412 0.371,-0.413 0.367,-0.413C0.363,-0.413 0.356,-0.411 0.347,-0.408C0.338,-0.412 0.331,-0.414 0.327,-0.414L0.313,-0.412L0.289,-0.411L0.256,-0.399L0.248,-0.406L0.242,-0.398L0.209,-0.378L0.148,-0.325L0.136,-0.315C0.134,-0.298 0.126,-0.279 0.114,-0.258L0.107,-0.246L0.107,-0.242C0.107,-0.235 0.106,-0.23 0.104,-0.228C0.101,-0.226 0.097,-0.224 0.09,-0.223C0.089,-0.218 0.088,-0.215 0.088,-0.216C0.088,-0.215 0.088,-0.215 0.089,-0.214C0.089,-0.214 0.089,-0.213 0.089,-0.213L0.104,-0.196L0.106,-0.185C0.096,-0.177 0.091,-0.171 0.091,-0.168C0.091,-0.168 0.091,-0.166 0.093,-0.162C0.096,-0.165 0.098,-0.167 0.101,-0.167C0.104,-0.167 0.106,-0.166 0.107,-0.164L0.118,-0.128L0.143,-0.087L0.14,-0.062C0.143,-0.059 0.146,-0.058 0.149,-0.058C0.153,-0.058 0.157,-0.06 0.161,-0.064L0.171,-0.061L0.23,-0.025L0.29,-0.019L0.324,-0.014L0.363,-0.021L0.388,-0.027L0.42,-0.059L0.443,-0.066L0.454,-0.078L0.48,-0.132L0.493,-0.143C0.498,-0.148 0.5,-0.152 0.5,-0.155L0.5,-0.157L0.492,-0.18L0.501,-0.236Z" style="fill:rgb(161,182,246);fill-rule:nonzero;"/>
        </g>
        <g transform="matrix(106.667,0,0,106.667,254.802,246.057)">
            <path d="M0.157,-0.682L0.156,-0.678C0.154,-0.676 0.153,-0.675 0.154,-0.675L0.088,-0.63L0.057,-0.606L0.049,-0.601L0.039,-0.616C0.052,-0.634 0.065,-0.648 0.079,-0.658L0.082,-0.668L0.118,-0.709C0.121,-0.713 0.126,-0.715 0.131,-0.715L0.138,-0.715L0.142,-0.705L0.151,-0.695C0.155,-0.689 0.157,-0.685 0.157,-0.682ZM0.154,0.146L0.15,0.206C0.149,0.226 0.147,0.243 0.143,0.255L0.129,0.259L0.128,0.264L0.136,0.29L0.124,0.348L0.122,0.355C0.122,0.36 0.118,0.372 0.109,0.391L0.099,0.415L0.093,0.428L0.084,0.43L0.079,0.441L0.067,0.458L0.042,0.497L0.006,0.534L-0.002,0.546L-0.031,0.559L-0.038,0.568C-0.043,0.574 -0.047,0.577 -0.052,0.579L-0.058,0.577C-0.061,0.577 -0.074,0.581 -0.096,0.588L-0.123,0.588L-0.157,0.599C-0.174,0.602 -0.187,0.603 -0.197,0.603C-0.208,0.603 -0.222,0.595 -0.238,0.579C-0.251,0.567 -0.258,0.557 -0.258,0.55C-0.258,0.547 -0.256,0.544 -0.252,0.542C-0.249,0.539 -0.245,0.538 -0.241,0.538L-0.234,0.539L-0.173,0.56L-0.146,0.56L-0.134,0.569L-0.122,0.572L-0.11,0.562L-0.077,0.559L-0.062,0.549L-0.025,0.532L-0.007,0.514C0.011,0.495 0.022,0.482 0.026,0.473L0.054,0.408L0.07,0.388L0.066,0.363L0.076,0.298L0.076,0.257L0.091,0.231L0.092,0.219C0.083,0.216 0.079,0.21 0.079,0.2L0.079,0.192L0.083,0.148L0.082,0.106L0.086,0.079L0.095,0.076C0.095,0.076 0.097,0.077 0.101,0.078L0.105,0.063L0.099,0.057C0.095,0.058 0.093,0.059 0.092,0.059C0.09,0.059 0.086,0.058 0.081,0.055L0.08,-0.024L0.097,-0.024L0.1,-0.034C0.1,-0.042 0.098,-0.049 0.093,-0.056C0.088,-0.062 0.083,-0.067 0.076,-0.069L0.078,-0.152L0.087,-0.151C0.091,-0.151 0.094,-0.152 0.095,-0.154C0.096,-0.156 0.096,-0.162 0.096,-0.172L0.092,-0.177C0.079,-0.177 0.073,-0.179 0.073,-0.184L0.076,-0.206L0.078,-0.217L0.083,-0.217C0.086,-0.226 0.087,-0.234 0.087,-0.241C0.087,-0.258 0.085,-0.269 0.081,-0.274L0.07,-0.29L0.066,-0.365L0.051,-0.382L0.062,-0.401L0.075,-0.406L0.129,-0.441C0.132,-0.443 0.135,-0.444 0.138,-0.444C0.145,-0.444 0.149,-0.438 0.15,-0.426L0.147,-0.411L0.15,-0.388L0.147,-0.336L0.148,-0.326L0.136,-0.304L0.137,-0.288L0.133,-0.271C0.146,-0.268 0.152,-0.263 0.152,-0.256L0.146,-0.22L0.149,-0.141L0.145,-0.112L0.148,-0.089L0.146,-0.055L0.151,-0.021L0.153,-0.007L0.153,0.012L0.152,0.037L0.152,0.053L0.153,0.071L0.153,0.077L0.147,0.092L0.145,0.105L0.146,0.115L0.154,0.146Z" style="fill:rgb(161,182,246);fill-rule:nonzero;"/>
        </g>
        <g transform="matrix(106.667,0,0,106.667,276.989,246.057)">
            <path d="M0.511,-0.1C0.511,-0.096 0.51,-0.092 0.509,-0.089L0.499,-0.072L0.476,-0.032L0.455,-0.031L0.442,-0.02C0.439,-0.017 0.434,-0.015 0.427,-0.014L0.339,0.003L0.325,0.008L0.294,0.005L0.249,0.009L0.198,0.006L0.184,0.006C0.177,0 0.173,-0.003 0.171,-0.004L0.123,-0.021L0.107,-0.036L0.075,-0.058L0.05,-0.092L0.04,-0.1C0.044,-0.108 0.046,-0.115 0.046,-0.121C0.046,-0.124 0.045,-0.126 0.044,-0.127L0.031,-0.148L0.028,-0.176L0.027,-0.198C0.027,-0.206 0.029,-0.216 0.032,-0.228C0.038,-0.248 0.042,-0.259 0.046,-0.263L0.064,-0.286L0.073,-0.307L0.096,-0.329L0.121,-0.362L0.143,-0.374L0.175,-0.396L0.203,-0.415L0.218,-0.418L0.262,-0.432L0.297,-0.436L0.318,-0.445L0.328,-0.446C0.345,-0.446 0.359,-0.437 0.37,-0.419C0.376,-0.42 0.381,-0.423 0.384,-0.429L0.397,-0.418L0.415,-0.408L0.456,-0.368C0.461,-0.362 0.465,-0.356 0.468,-0.351C0.471,-0.347 0.474,-0.342 0.476,-0.336C0.479,-0.331 0.482,-0.326 0.484,-0.319C0.486,-0.313 0.489,-0.304 0.493,-0.291L0.497,-0.279L0.492,-0.277L0.473,-0.281L0.452,-0.274L0.436,-0.277L0.418,-0.272L0.384,-0.276L0.351,-0.274L0.317,-0.28L0.261,-0.279L0.234,-0.28L0.168,-0.271L0.144,-0.272L0.111,-0.262L0.099,-0.26L0.097,-0.248C0.097,-0.24 0.095,-0.234 0.094,-0.231C0.092,-0.229 0.089,-0.225 0.083,-0.221L0.084,-0.212C0.095,-0.204 0.1,-0.199 0.101,-0.197L0.114,-0.147L0.12,-0.135C0.117,-0.132 0.115,-0.129 0.115,-0.126L0.116,-0.124L0.135,-0.118L0.139,-0.106C0.142,-0.095 0.147,-0.088 0.152,-0.085L0.178,-0.074L0.187,-0.055C0.192,-0.053 0.199,-0.051 0.209,-0.05L0.216,-0.037L0.231,-0.035L0.273,-0.02L0.308,-0.027L0.401,-0.042L0.452,-0.073L0.478,-0.107C0.483,-0.112 0.488,-0.115 0.494,-0.115C0.506,-0.115 0.511,-0.11 0.511,-0.1ZM0.396,-0.33C0.396,-0.335 0.39,-0.346 0.378,-0.363L0.344,-0.387L0.333,-0.399L0.317,-0.4L0.28,-0.403L0.271,-0.401L0.25,-0.389L0.223,-0.383L0.176,-0.365L0.16,-0.342C0.15,-0.335 0.145,-0.331 0.144,-0.329L0.142,-0.323L0.202,-0.319L0.209,-0.32L0.22,-0.323L0.231,-0.321L0.26,-0.315L0.261,-0.315L0.294,-0.321L0.304,-0.323L0.312,-0.312L0.323,-0.312L0.366,-0.321L0.384,-0.319C0.392,-0.32 0.396,-0.324 0.396,-0.33Z" style="fill:rgb(161,182,246);fill-rule:nonzero;"/>
        </g>
        <g transform="matrix(106.667,0,0,106.667,333.604,246.057)">
            <path d="M0.485,-0.093C0.485,-0.091 0.485,-0.089 0.484,-0.088L0.478,-0.063C0.478,-0.063 0.478,-0.062 0.478,-0.062C0.478,-0.061 0.479,-0.06 0.479,-0.059L0.458,-0.033L0.446,-0.03L0.427,-0.017L0.419,-0.015L0.397,-0.004L0.364,-0.005C0.358,-0.005 0.351,-0.003 0.341,0.002L0.316,0.016L0.277,0.019L0.238,0.016L0.229,0.009L0.2,0.005L0.168,-0.004L0.123,-0.014L0.102,-0.032L0.083,-0.052L0.089,-0.069C0.083,-0.066 0.077,-0.065 0.072,-0.065L0.068,-0.065L0.059,-0.075L0.047,-0.096L0.04,-0.105L0.037,-0.133L0.041,-0.147L0.037,-0.155L0.027,-0.166L0.033,-0.191L0.031,-0.236L0.048,-0.265L0.069,-0.308L0.096,-0.331L0.145,-0.378L0.178,-0.402L0.187,-0.405L0.207,-0.42L0.27,-0.44L0.285,-0.444C0.286,-0.444 0.286,-0.444 0.287,-0.444C0.287,-0.443 0.288,-0.443 0.288,-0.443L0.313,-0.432L0.338,-0.439L0.385,-0.431L0.425,-0.437C0.43,-0.436 0.435,-0.434 0.441,-0.431C0.438,-0.421 0.435,-0.414 0.432,-0.41C0.429,-0.407 0.423,-0.403 0.413,-0.399L0.412,-0.388L0.392,-0.376L0.378,-0.369L0.376,-0.369L0.363,-0.371L0.346,-0.369L0.271,-0.381C0.268,-0.382 0.265,-0.382 0.26,-0.382C0.255,-0.382 0.252,-0.382 0.25,-0.381L0.209,-0.373L0.196,-0.373C0.185,-0.371 0.174,-0.362 0.163,-0.347L0.142,-0.34L0.133,-0.32L0.116,-0.317C0.118,-0.314 0.118,-0.312 0.118,-0.31L0.098,-0.271L0.096,-0.254L0.097,-0.224C0.097,-0.21 0.099,-0.198 0.101,-0.188C0.103,-0.179 0.106,-0.17 0.111,-0.16L0.107,-0.149C0.104,-0.143 0.102,-0.14 0.102,-0.138C0.102,-0.136 0.103,-0.134 0.105,-0.131C0.115,-0.128 0.119,-0.127 0.119,-0.127C0.122,-0.125 0.127,-0.119 0.134,-0.109L0.147,-0.091L0.152,-0.08L0.163,-0.08L0.169,-0.072L0.201,-0.049L0.215,-0.037L0.231,-0.032L0.245,-0.027L0.267,-0.026L0.323,-0.02L0.325,-0.019C0.331,-0.019 0.342,-0.024 0.36,-0.033L0.369,-0.03L0.403,-0.053C0.412,-0.055 0.42,-0.058 0.429,-0.064C0.437,-0.07 0.449,-0.08 0.463,-0.095C0.467,-0.1 0.471,-0.103 0.475,-0.103C0.478,-0.103 0.48,-0.102 0.482,-0.1C0.484,-0.098 0.485,-0.096 0.485,-0.093Z" style="fill:rgb(161,182,246);fill-rule:nonzero;"/>
        </g>
        <g transform="matrix(106.667,0,0,106.667,386.729,246.057)">
            <path d="M0.373,-0.426L0.368,-0.412L0.367,-0.402L0.332,-0.376L0.311,-0.357L0.299,-0.355L0.281,-0.357C0.269,-0.358 0.258,-0.36 0.248,-0.363C0.238,-0.365 0.233,-0.366 0.234,-0.366L0.233,-0.366L0.2,-0.364L0.181,-0.367C0.177,-0.367 0.173,-0.365 0.17,-0.362C0.167,-0.359 0.165,-0.356 0.165,-0.353C0.165,-0.349 0.167,-0.347 0.171,-0.346L0.17,-0.283C0.156,-0.279 0.149,-0.273 0.149,-0.265L0.15,-0.254L0.17,-0.25L0.172,-0.203L0.173,-0.193L0.168,-0.178C0.164,-0.18 0.161,-0.181 0.158,-0.181C0.15,-0.181 0.146,-0.177 0.146,-0.17C0.146,-0.167 0.149,-0.162 0.154,-0.155C0.158,-0.16 0.161,-0.163 0.163,-0.163C0.164,-0.163 0.167,-0.161 0.173,-0.156L0.174,-0.09L0.176,-0.08L0.187,-0.057C0.188,-0.055 0.188,-0.049 0.188,-0.04C0.196,-0.035 0.202,-0.032 0.207,-0.031C0.211,-0.029 0.217,-0.029 0.225,-0.029C0.236,-0.029 0.246,-0.031 0.256,-0.034C0.266,-0.038 0.275,-0.042 0.281,-0.048L0.329,-0.092C0.331,-0.094 0.334,-0.095 0.337,-0.095C0.341,-0.095 0.347,-0.093 0.354,-0.089L0.351,-0.078C0.344,-0.051 0.339,-0.037 0.334,-0.035L0.219,0.007L0.199,0.017L0.184,0.008L0.174,0.006L0.169,0.019L0.16,0.02C0.15,0.02 0.139,0.015 0.126,0.006C0.112,-0.005 0.105,-0.014 0.104,-0.019L0.101,-0.033L0.095,-0.05L0.096,-0.077L0.096,-0.108L0.106,-0.14L0.103,-0.152L0.101,-0.169L0.101,-0.18L0.103,-0.227L0.102,-0.24L0.1,-0.257C0.1,-0.258 0.1,-0.259 0.101,-0.259L0.114,-0.274C0.115,-0.276 0.116,-0.278 0.116,-0.28C0.116,-0.287 0.111,-0.291 0.099,-0.291L0.095,-0.297C0.098,-0.321 0.1,-0.344 0.1,-0.368C0.084,-0.371 0.073,-0.373 0.065,-0.373C0.045,-0.373 0.024,-0.37 0.004,-0.363C0.001,-0.365 0,-0.368 0,-0.37C0,-0.376 0.001,-0.379 0.004,-0.381L0.023,-0.397L0.026,-0.408C0.027,-0.411 0.028,-0.413 0.031,-0.415C0.033,-0.416 0.035,-0.417 0.036,-0.417L0.093,-0.419L0.106,-0.421L0.105,-0.432L0.102,-0.536L0.09,-0.564L0.087,-0.579C0.097,-0.593 0.106,-0.603 0.116,-0.608C0.126,-0.614 0.139,-0.618 0.154,-0.621C0.16,-0.631 0.166,-0.636 0.171,-0.636C0.18,-0.636 0.184,-0.621 0.184,-0.592C0.184,-0.547 0.18,-0.515 0.172,-0.496C0.167,-0.483 0.163,-0.476 0.158,-0.476L0.158,-0.453C0.163,-0.453 0.166,-0.453 0.168,-0.452C0.17,-0.451 0.172,-0.449 0.174,-0.446L0.171,-0.432L0.173,-0.421L0.183,-0.42L0.232,-0.409C0.236,-0.408 0.241,-0.407 0.248,-0.407C0.255,-0.407 0.26,-0.408 0.263,-0.409L0.282,-0.415L0.319,-0.419L0.347,-0.429L0.372,-0.429C0.373,-0.427 0.373,-0.425 0.373,-0.426Z" style="fill:rgb(161,182,246);fill-rule:nonzero;"/>
        </g>
        <g transform="matrix(106.667,0,0,106.667,119.359,368.723)">
            <path d="M0.715,-0.026L0.706,-0.013C0.705,-0.013 0.704,-0.013 0.703,-0.013C0.702,-0.013 0.702,-0.013 0.701,-0.012C0.695,-0.012 0.689,-0.01 0.684,-0.007C0.677,-0.002 0.657,0.006 0.624,0.017L0.615,0.019L0.61,0.025L0.601,0.02L0.587,-0L0.57,-0.01L0.562,-0.017L0.554,-0.015L0.546,-0.023L0.466,-0.077L0.437,-0.11L0.409,-0.125C0.388,-0.137 0.376,-0.15 0.371,-0.166L0.362,-0.164L0.346,-0.175L0.311,-0.198C0.304,-0.203 0.301,-0.206 0.301,-0.208L0.3,-0.224L0.295,-0.235C0.287,-0.226 0.279,-0.221 0.273,-0.221L0.269,-0.221L0.241,-0.238L0.221,-0.248L0.182,-0.279L0.169,-0.285L0.164,-0.266L0.166,-0.153L0.165,-0.132L0.161,-0.134L0.157,-0.126L0.158,-0.115L0.16,-0.096L0.169,-0.083C0.17,-0.082 0.17,-0.082 0.17,-0.081L0.169,-0.047L0.169,-0.041L0.164,-0.037L0.169,-0.021L0.169,-0.018L0.145,-0.007L0.126,0.006L0.121,0.002L0.098,0.011L0.09,0.012L0.076,0.017L0.069,0.004L0.074,-0.008C0.078,-0.019 0.081,-0.026 0.083,-0.031C0.085,-0.035 0.086,-0.038 0.087,-0.041C0.088,-0.044 0.089,-0.046 0.089,-0.047L0.094,-0.091L0.097,-0.105C0.104,-0.107 0.109,-0.109 0.112,-0.112C0.115,-0.115 0.116,-0.12 0.116,-0.127L0.115,-0.144L0.101,-0.142L0.097,-0.162C0.097,-0.169 0.1,-0.175 0.107,-0.18L0.107,-0.191C0.102,-0.197 0.1,-0.204 0.1,-0.211L0.1,-0.22L0.101,-0.258L0.1,-0.299L0.114,-0.306L0.117,-0.311L0.111,-0.339L0.117,-0.347L0.107,-0.352C0.106,-0.355 0.105,-0.358 0.104,-0.361C0.104,-0.363 0.104,-0.371 0.104,-0.384L0.103,-0.395C0.11,-0.399 0.115,-0.402 0.116,-0.405C0.118,-0.408 0.119,-0.413 0.119,-0.42L0.102,-0.428L0.1,-0.441L0.098,-0.473L0.095,-0.49L0.097,-0.51L0.086,-0.521L0.087,-0.527L0.083,-0.565L0.082,-0.597L0.067,-0.615L0.068,-0.621L0.136,-0.654C0.144,-0.658 0.15,-0.66 0.156,-0.66C0.165,-0.66 0.169,-0.654 0.169,-0.643L0.169,-0.634C0.165,-0.631 0.162,-0.628 0.161,-0.626C0.159,-0.625 0.158,-0.622 0.157,-0.618C0.168,-0.609 0.173,-0.597 0.173,-0.582L0.172,-0.569C0.157,-0.564 0.15,-0.557 0.15,-0.547C0.15,-0.538 0.158,-0.534 0.173,-0.534L0.171,-0.442C0.159,-0.438 0.153,-0.434 0.153,-0.43C0.153,-0.429 0.153,-0.428 0.154,-0.427L0.169,-0.398L0.166,-0.386L0.167,-0.35L0.164,-0.339L0.154,-0.329L0.163,-0.326L0.172,-0.329L0.187,-0.336L0.216,-0.359C0.228,-0.366 0.236,-0.37 0.239,-0.371C0.25,-0.374 0.257,-0.377 0.26,-0.378C0.262,-0.379 0.264,-0.381 0.266,-0.384C0.267,-0.387 0.269,-0.39 0.27,-0.394L0.282,-0.399L0.318,-0.421L0.334,-0.433L0.343,-0.444L0.365,-0.46L0.415,-0.51L0.432,-0.518C0.433,-0.525 0.437,-0.532 0.444,-0.541L0.45,-0.549L0.461,-0.548C0.464,-0.548 0.468,-0.55 0.472,-0.554L0.469,-0.559L0.472,-0.563L0.467,-0.573L0.482,-0.594L0.494,-0.609L0.537,-0.63L0.568,-0.648C0.569,-0.648 0.57,-0.649 0.57,-0.649C0.571,-0.649 0.571,-0.649 0.572,-0.649C0.575,-0.649 0.578,-0.648 0.58,-0.646C0.582,-0.644 0.583,-0.641 0.583,-0.638C0.583,-0.63 0.577,-0.62 0.564,-0.608C0.551,-0.596 0.542,-0.587 0.536,-0.581C0.53,-0.576 0.526,-0.571 0.523,-0.569C0.511,-0.553 0.502,-0.543 0.498,-0.539C0.494,-0.536 0.488,-0.534 0.479,-0.532L0.474,-0.523C0.463,-0.503 0.453,-0.491 0.445,-0.487L0.432,-0.481L0.382,-0.433L0.347,-0.412L0.304,-0.381L0.284,-0.361L0.27,-0.346L0.261,-0.339C0.261,-0.335 0.262,-0.332 0.263,-0.33C0.264,-0.328 0.266,-0.327 0.269,-0.326C0.274,-0.319 0.28,-0.313 0.287,-0.308C0.323,-0.287 0.344,-0.272 0.352,-0.263C0.353,-0.263 0.354,-0.262 0.354,-0.261C0.355,-0.26 0.356,-0.259 0.356,-0.259L0.364,-0.234L0.38,-0.234C0.381,-0.234 0.382,-0.234 0.384,-0.233C0.385,-0.232 0.387,-0.232 0.388,-0.231L0.432,-0.198L0.455,-0.185L0.474,-0.168C0.481,-0.163 0.486,-0.159 0.489,-0.157C0.491,-0.155 0.493,-0.151 0.496,-0.145L0.511,-0.144L0.55,-0.108L0.55,-0.088L0.578,-0.087L0.585,-0.078L0.594,-0.073C0.592,-0.068 0.591,-0.064 0.591,-0.06C0.591,-0.055 0.593,-0.05 0.598,-0.045C0.602,-0.04 0.605,-0.038 0.609,-0.038C0.612,-0.038 0.615,-0.039 0.619,-0.041L0.621,-0.049L0.629,-0.051C0.632,-0.051 0.639,-0.048 0.648,-0.042L0.649,-0.032L0.655,-0.03L0.692,-0.038L0.694,-0.038C0.7,-0.038 0.707,-0.034 0.715,-0.026Z" style="fill:rgb(161,182,246);fill-rule:nonzero;"/>
        </g>
        <g transform="matrix(106.667,0,0,106.667,193.473,368.723)">
            <path d="M0.572,-0.248L0.561,-0.25L0.563,-0.239L0.552,-0.231C0.553,-0.225 0.555,-0.222 0.556,-0.22C0.557,-0.219 0.56,-0.217 0.565,-0.214L0.566,-0.204C0.566,-0.169 0.552,-0.13 0.525,-0.089C0.519,-0.08 0.511,-0.07 0.502,-0.06C0.493,-0.05 0.487,-0.043 0.485,-0.04L0.47,-0.036L0.378,0.007L0.327,0.009L0.29,0.018L0.246,0.017L0.231,0.021L0.187,0.013L0.169,0.012L0.159,0.001L0.132,-0.003L0.119,-0.01C0.108,-0.018 0.099,-0.025 0.091,-0.031C0.084,-0.037 0.079,-0.04 0.077,-0.042C0.075,-0.044 0.073,-0.046 0.072,-0.048L0.061,-0.069L0.046,-0.081L0.034,-0.112L0.03,-0.124L0.035,-0.128C0.035,-0.132 0.036,-0.136 0.037,-0.137C0.038,-0.139 0.041,-0.14 0.046,-0.142L0.043,-0.15L0.027,-0.16L0.027,-0.18C0.027,-0.194 0.028,-0.208 0.032,-0.222C0.035,-0.235 0.041,-0.251 0.049,-0.269C0.062,-0.298 0.071,-0.314 0.077,-0.318L0.097,-0.331L0.108,-0.35C0.112,-0.357 0.117,-0.361 0.122,-0.364L0.168,-0.388L0.194,-0.409L0.225,-0.421L0.28,-0.44L0.325,-0.444L0.361,-0.445C0.381,-0.445 0.391,-0.439 0.391,-0.428C0.397,-0.423 0.4,-0.421 0.402,-0.421C0.407,-0.421 0.412,-0.426 0.418,-0.435L0.43,-0.432L0.462,-0.421L0.475,-0.41L0.493,-0.399L0.511,-0.371C0.516,-0.365 0.526,-0.362 0.54,-0.362C0.549,-0.35 0.556,-0.339 0.559,-0.327C0.562,-0.316 0.566,-0.295 0.57,-0.264L0.572,-0.248ZM0.501,-0.236L0.483,-0.292L0.48,-0.317L0.475,-0.326L0.472,-0.326C0.47,-0.326 0.467,-0.327 0.466,-0.328C0.464,-0.329 0.462,-0.33 0.46,-0.333L0.436,-0.363L0.428,-0.375L0.387,-0.394C0.383,-0.401 0.38,-0.405 0.377,-0.408C0.374,-0.412 0.371,-0.413 0.367,-0.413C0.363,-0.413 0.356,-0.411 0.347,-0.408C0.338,-0.412 0.331,-0.414 0.327,-0.414L0.313,-0.412L0.289,-0.411L0.256,-0.399L0.248,-0.406L0.242,-0.398L0.209,-0.378L0.148,-0.325L0.136,-0.315C0.134,-0.298 0.126,-0.279 0.114,-0.258L0.107,-0.246L0.107,-0.242C0.107,-0.235 0.106,-0.23 0.104,-0.228C0.101,-0.226 0.097,-0.224 0.09,-0.223C0.089,-0.218 0.088,-0.215 0.088,-0.216C0.088,-0.215 0.088,-0.215 0.089,-0.214C0.089,-0.214 0.089,-0.213 0.089,-0.213L0.104,-0.196L0.106,-0.185C0.096,-0.177 0.091,-0.171 0.091,-0.168C0.091,-0.168 0.091,-0.166 0.093,-0.162C0.096,-0.165 0.098,-0.167 0.101,-0.167C0.104,-0.167 0.106,-0.166 0.107,-0.164L0.118,-0.128L0.143,-0.087L0.14,-0.062C0.143,-0.059 0.146,-0.058 0.149,-0.058C0.153,-0.058 0.157,-0.06 0.161,-0.064L0.171,-0.061L0.23,-0.025L0.29,-0.019L0.324,-0.014L0.363,-0.021L0.388,-0.027L0.42,-0.059L0.443,-0.066L0.454,-0.078L0.48,-0.132L0.493,-0.143C0.498,-0.148 0.5,-0.152 0.5,-0.155L0.5,-0.157L0.492,-0.18L0.501,-0.236Z" style="fill:rgb(161,182,246);fill-rule:nonzero;"/>
        </g>
        <g transform="matrix(106.667,0,0,106.667,257.276,368.723)">
            <path d="M0.489,-0.033L0.484,-0.024L0.476,-0.012L0.462,-0.007L0.442,0.004L0.423,0.01C0.411,0.015 0.404,0.017 0.402,0.017C0.4,0.017 0.397,0.016 0.395,0.013C0.393,0.011 0.392,0.009 0.392,0.007C0.392,0.004 0.394,-0.004 0.397,-0.015C0.399,-0.018 0.4,-0.024 0.401,-0.032L0.391,-0.026L0.347,-0.011C0.338,-0.007 0.33,-0.005 0.321,-0.005L0.301,-0.005L0.278,0.006L0.262,0.008L0.217,0.017L0.198,0.014L0.185,0.019L0.176,0.021L0.161,0.02L0.129,0.013L0.107,0.011C0.092,0.009 0.079,0.004 0.068,-0.004C0.057,-0.012 0.049,-0.023 0.044,-0.036L0.031,-0.041L0.028,-0.053L0.027,-0.062L0.02,-0.085L0.038,-0.121L0.044,-0.137C0.046,-0.141 0.052,-0.148 0.062,-0.156L0.1,-0.187L0.116,-0.193L0.143,-0.204C0.143,-0.204 0.144,-0.204 0.145,-0.204C0.146,-0.204 0.147,-0.203 0.148,-0.203C0.154,-0.217 0.167,-0.224 0.185,-0.224L0.188,-0.227L0.198,-0.227C0.202,-0.232 0.207,-0.236 0.211,-0.238C0.215,-0.24 0.223,-0.242 0.235,-0.244L0.296,-0.255L0.314,-0.253L0.337,-0.258L0.378,-0.262C0.392,-0.265 0.399,-0.272 0.399,-0.282C0.399,-0.284 0.399,-0.285 0.398,-0.285L0.393,-0.307L0.397,-0.339C0.396,-0.346 0.394,-0.351 0.39,-0.354C0.386,-0.357 0.38,-0.359 0.372,-0.36L0.365,-0.371C0.358,-0.383 0.352,-0.39 0.348,-0.394C0.343,-0.397 0.334,-0.4 0.322,-0.403L0.294,-0.409L0.267,-0.41L0.254,-0.408C0.251,-0.41 0.249,-0.411 0.247,-0.413C0.245,-0.415 0.244,-0.418 0.243,-0.422L0.23,-0.416L0.215,-0.402L0.167,-0.378C0.157,-0.372 0.15,-0.367 0.147,-0.362L0.14,-0.352C0.137,-0.347 0.132,-0.344 0.127,-0.344L0.117,-0.346L0.103,-0.353L0.088,-0.356C0.083,-0.358 0.078,-0.36 0.073,-0.364C0.068,-0.368 0.066,-0.372 0.066,-0.375C0.066,-0.377 0.066,-0.378 0.067,-0.378L0.075,-0.384L0.091,-0.396L0.108,-0.399L0.134,-0.412L0.166,-0.423L0.175,-0.425L0.196,-0.436L0.213,-0.433L0.272,-0.446L0.297,-0.445L0.316,-0.445L0.336,-0.438L0.394,-0.427L0.403,-0.422L0.403,-0.415L0.396,-0.411C0.398,-0.4 0.402,-0.394 0.408,-0.394C0.409,-0.394 0.409,-0.395 0.41,-0.395C0.41,-0.395 0.41,-0.395 0.411,-0.395L0.425,-0.401L0.427,-0.401C0.43,-0.401 0.432,-0.399 0.433,-0.396L0.443,-0.378L0.453,-0.37L0.453,-0.359L0.451,-0.334C0.451,-0.323 0.456,-0.314 0.467,-0.306L0.473,-0.234L0.46,-0.216L0.475,-0.198L0.476,-0.192L0.473,-0.146L0.477,-0.111L0.477,-0.092L0.47,-0.09C0.471,-0.082 0.471,-0.076 0.472,-0.074C0.472,-0.072 0.473,-0.069 0.475,-0.064L0.489,-0.033ZM0.411,-0.118C0.406,-0.122 0.403,-0.126 0.402,-0.129L0.404,-0.149L0.4,-0.194L0.406,-0.207L0.39,-0.216L0.382,-0.214L0.337,-0.217L0.316,-0.216L0.3,-0.227L0.29,-0.221L0.263,-0.22L0.244,-0.213L0.233,-0.219L0.219,-0.211L0.146,-0.176L0.13,-0.164L0.117,-0.145L0.1,-0.135C0.097,-0.132 0.096,-0.129 0.096,-0.126L0.097,-0.124L0.101,-0.118L0.1,-0.114L0.111,-0.07L0.1,-0.042L0.108,-0.032L0.121,-0.048C0.126,-0.044 0.13,-0.041 0.134,-0.038C0.138,-0.035 0.142,-0.033 0.148,-0.031C0.153,-0.03 0.16,-0.028 0.169,-0.026L0.179,-0.012L0.213,-0.009L0.222,-0.018L0.232,-0.013L0.244,-0.02C0.252,-0.017 0.257,-0.016 0.258,-0.016C0.268,-0.016 0.28,-0.021 0.296,-0.03L0.307,-0.036C0.336,-0.036 0.356,-0.042 0.365,-0.054L0.375,-0.067L0.399,-0.087L0.4,-0.093L0.399,-0.099C0.404,-0.101 0.407,-0.103 0.408,-0.105C0.41,-0.107 0.41,-0.112 0.411,-0.118Z" style="fill:rgb(161,182,246);fill-rule:nonzero;"/>
        </g>
        <g transform="matrix(106.667,0,0,106.667,314.463,368.723)">
            <path d="M0.16,-0.087L0.158,-0.061L0.159,-0.041C0.159,-0.036 0.157,-0.032 0.152,-0.029L0.155,-0.017L0.144,-0.015L0.112,0.005L0.099,0.007L0.084,0.016C0.083,0.016 0.082,0.016 0.081,0.016C0.08,0.017 0.078,0.017 0.077,0.017C0.071,0.017 0.068,0.015 0.068,0.011L0.068,-0.001L0.065,-0.023L0.072,-0.076L0.074,-0.144C0.075,-0.161 0.079,-0.174 0.085,-0.185L0.079,-0.2C0.074,-0.21 0.071,-0.216 0.071,-0.218C0.071,-0.223 0.075,-0.232 0.083,-0.246C0.086,-0.251 0.088,-0.256 0.088,-0.262C0.088,-0.267 0.083,-0.271 0.073,-0.275L0.075,-0.283L0.071,-0.285L0.071,-0.3L0.079,-0.334L0.079,-0.418L0.089,-0.457C0.089,-0.462 0.085,-0.468 0.077,-0.474L0.077,-0.497L0.075,-0.585C0.075,-0.591 0.079,-0.603 0.088,-0.618L0.095,-0.631C0.083,-0.636 0.077,-0.641 0.077,-0.646C0.077,-0.645 0.078,-0.651 0.08,-0.665L0.07,-0.674L0.07,-0.693L0.068,-0.716L0.068,-0.72L0.076,-0.745L0.068,-0.78L0.07,-0.797L0.06,-0.854L0.06,-0.862L0.064,-0.878L0.067,-0.898L0.111,-0.922L0.131,-0.937L0.139,-0.939L0.146,-0.928L0.147,-0.907L0.151,-0.893L0.152,-0.885L0.152,-0.873L0.149,-0.837L0.149,-0.834L0.15,-0.817C0.15,-0.811 0.149,-0.807 0.148,-0.804L0.136,-0.779L0.135,-0.769C0.141,-0.769 0.145,-0.768 0.147,-0.766C0.149,-0.764 0.15,-0.759 0.15,-0.752L0.15,-0.741C0.15,-0.735 0.146,-0.729 0.138,-0.725L0.138,-0.713L0.137,-0.703L0.137,-0.699L0.146,-0.685L0.142,-0.592L0.142,-0.525L0.129,-0.499L0.136,-0.462L0.126,-0.438C0.127,-0.435 0.13,-0.431 0.135,-0.427L0.143,-0.418L0.147,-0.26L0.135,-0.246C0.136,-0.24 0.136,-0.233 0.136,-0.226C0.136,-0.215 0.135,-0.204 0.132,-0.194L0.136,-0.183L0.15,-0.183L0.15,-0.165L0.16,-0.087Z" style="fill:rgb(161,182,246);fill-rule:nonzero;"/>
        </g>
        <g transform="matrix(106.667,0,0,106.667,337.953,368.723)">
            <path d="M0.489,-0.033L0.484,-0.024L0.476,-0.012L0.462,-0.007L0.442,0.004L0.423,0.01C0.411,0.015 0.404,0.017 0.402,0.017C0.4,0.017 0.397,0.016 0.395,0.013C0.393,0.011 0.392,0.009 0.392,0.007C0.392,0.004 0.394,-0.004 0.397,-0.015C0.399,-0.018 0.4,-0.024 0.401,-0.032L0.391,-0.026L0.347,-0.011C0.338,-0.007 0.33,-0.005 0.321,-0.005L0.301,-0.005L0.278,0.006L0.262,0.008L0.217,0.017L0.198,0.014L0.185,0.019L0.176,0.021L0.161,0.02L0.129,0.013L0.107,0.011C0.092,0.009 0.079,0.004 0.068,-0.004C0.057,-0.012 0.049,-0.023 0.044,-0.036L0.031,-0.041L0.028,-0.053L0.027,-0.062L0.02,-0.085L0.038,-0.121L0.044,-0.137C0.046,-0.141 0.052,-0.148 0.062,-0.156L0.1,-0.187L0.116,-0.193L0.143,-0.204C0.143,-0.204 0.144,-0.204 0.145,-0.204C0.146,-0.204 0.147,-0.203 0.148,-0.203C0.154,-0.217 0.167,-0.224 0.185,-0.224L0.188,-0.227L0.198,-0.227C0.202,-0.232 0.207,-0.236 0.211,-0.238C0.215,-0.24 0.223,-0.242 0.235,-0.244L0.296,-0.255L0.314,-0.253L0.337,-0.258L0.378,-0.262C0.392,-0.265 0.399,-0.272 0.399,-0.282C0.399,-0.284 0.399,-0.285 0.398,-0.285L0.393,-0.307L0.397,-0.339C0.396,-0.346 0.394,-0.351 0.39,-0.354C0.386,-0.357 0.38,-0.359 0.372,-0.36L0.365,-0.371C0.358,-0.383 0.352,-0.39 0.348,-0.394C0.343,-0.397 0.334,-0.4 0.322,-0.403L0.294,-0.409L0.267,-0.41L0.254,-0.408C0.251,-0.41 0.249,-0.411 0.247,-0.413C0.245,-0.415 0.244,-0.418 0.243,-0.422L0.23,-0.416L0.215,-0.402L0.167,-0.378C0.157,-0.372 0.15,-0.367 0.147,-0.362L0.14,-0.352C0.137,-0.347 0.132,-0.344 0.127,-0.344L0.117,-0.346L0.103,-0.353L0.088,-0.356C0.083,-0.358 0.078,-0.36 0.073,-0.364C0.068,-0.368 0.066,-0.372 0.066,-0.375C0.066,-0.377 0.066,-0.378 0.067,-0.378L0.075,-0.384L0.091,-0.396L0.108,-0.399L0.134,-0.412L0.166,-0.423L0.175,-0.425L0.196,-0.436L0.213,-0.433L0.272,-0.446L0.297,-0.445L0.316,-0.445L0.336,-0.438L0.394,-0.427L0.403,-0.422L0.403,-0.415L0.396,-0.411C0.398,-0.4 0.402,-0.394 0.408,-0.394C0.409,-0.394 0.409,-0.395 0.41,-0.395C0.41,-0.395 0.41,-0.395 0.411,-0.395L0.425,-0.401L0.427,-0.401C0.43,-0.401 0.432,-0.399 0.433,-0.396L0.443,-0.378L0.453,-0.37L0.453,-0.359L0.451,-0.334C0.451,-0.323 0.456,-0.314 0.467,-0.306L0.473,-0.234L0.46,-0.216L0.475,-0.198L0.476,-0.192L0.473,-0.146L0.477,-0.111L0.477,-0.092L0.47,-0.09C0.471,-0.082 0.471,-0.076 0.472,-0.074C0.472,-0.072 0.473,-0.069 0.475,-0.064L0.489,-0.033ZM0.411,-0.118C0.406,-0.122 0.403,-0.126 0.402,-0.129L0.404,-0.149L0.4,-0.194L0.406,-0.207L0.39,-0.216L0.382,-0.214L0.337,-0.217L0.316,-0.216L0.3,-0.227L0.29,-0.221L0.263,-0.22L0.244,-0.213L0.233,-0.219L0.219,-0.211L0.146,-0.176L0.13,-0.164L0.117,-0.145L0.1,-0.135C0.097,-0.132 0.096,-0.129 0.096,-0.126L0.097,-0.124L0.101,-0.118L0.1,-0.114L0.111,-0.07L0.1,-0.042L0.108,-0.032L0.121,-0.048C0.126,-0.044 0.13,-0.041 0.134,-0.038C0.138,-0.035 0.142,-0.033 0.148,-0.031C0.153,-0.03 0.16,-0.028 0.169,-0.026L0.179,-0.012L0.213,-0.009L0.222,-0.018L0.232,-0.013L0.244,-0.02C0.252,-0.017 0.257,-0.016 0.258,-0.016C0.268,-0.016 0.28,-0.021 0.296,-0.03L0.307,-0.036C0.336,-0.036 0.356,-0.042 0.365,-0.054L0.375,-0.067L0.399,-0.087L0.4,-0.093L0.399,-0.099C0.404,-0.101 0.407,-0.103 0.408,-0.105C0.41,-0.107 0.41,-0.112 0.411,-0.118Z" style="fill:rgb(161,182,246);fill-rule:nonzero;"/>
        </g>
    </g>
</svg>
